<svg width="49" height="49" viewBox="0 0 49 49" fill="none" xmlns="http://www.w3.org/2000/svg">
<path d="M26.5213 5.61475C28.2788 5.61475 29.0568 5.61629 29.6983 5.67372C36.8304 6.31228 42.4828 11.9647 43.1214 19.0968C43.1788 19.7383 43.1804 20.5162 43.1804 22.2738V24.295C43.1804 25.1407 43.8659 25.8262 44.7116 25.8262C45.5573 25.8262 46.2429 25.1407 46.2429 24.295V22.1709C46.2429 20.5438 46.2429 19.6192 46.1717 18.8237C45.401 10.216 38.5792 3.3941 29.9714 2.62342C29.1758 2.5522 28.2512 2.55222 26.6241 2.55225H24.5001C23.6545 2.55225 22.9689 3.23782 22.9689 4.0835C22.9689 4.92919 23.6545 5.61475 24.5001 5.61475L26.5213 5.61475Z" fill="#333333"/>
<path d="M14.5199 8.21848C12.3719 6.24474 9.07021 6.24474 6.92219 8.21848C6.83423 8.29931 6.74033 8.39323 6.61839 8.51519L4.78598 10.3476C2.94213 12.1915 2.16809 14.8495 2.73376 17.3951C5.9432 31.8375 17.2225 43.1168 31.6649 46.3262C34.2104 46.8919 36.8685 46.1179 38.7124 44.274L40.5446 42.4418C40.6666 42.3198 40.7606 42.2258 40.8415 42.1378C42.8152 39.9898 42.8152 36.6881 40.8415 34.5401C40.7606 34.4521 40.6667 34.3581 40.5446 34.2361L37.5448 31.2363C35.4621 29.1536 32.3169 28.558 29.6169 29.7349C28.0711 30.4087 26.2705 30.0677 25.0781 28.8753L20.1846 23.9819C18.9923 22.7895 18.6513 20.9889 19.3251 19.4431C20.502 16.7431 19.9064 13.5978 17.8237 11.5151L14.8238 8.51524C14.7018 8.39326 14.6079 8.29932 14.5199 8.21848Z" fill="#333333"/>
<path d="M25.9436 9.77063C25.0979 9.77063 24.4123 10.4562 24.4123 11.3019C24.4123 12.1476 25.0979 12.8331 25.9436 12.8331H27.0985C27.2766 12.8331 27.3496 12.8332 27.4089 12.834C32.1039 12.9013 35.8936 16.691 35.9609 21.386C35.9617 21.4453 35.9618 21.5182 35.9618 21.6964V22.8513C35.9618 23.697 36.6473 24.3825 37.493 24.3825C38.3387 24.3825 39.0243 23.697 39.0243 22.8513V21.6815C39.0243 21.5229 39.0243 21.4263 39.023 21.3421C38.9321 14.9901 33.8048 9.86281 27.4528 9.77183C27.3685 9.77063 27.272 9.77063 27.1133 9.77063H25.9436Z" fill="#333333"/>
</svg>
