<svg width="30" height="30" viewBox="0 0 30 30" fill="none" xmlns="http://www.w3.org/2000/svg">
<path fill-rule="evenodd" clip-rule="evenodd" d="M10.2001 0H19.7999C22.7809 0 25.2 2.41906 25.2 5.40004C25.2 7.48904 24.012 9.30201 22.2752 10.2C24.012 11.0979 25.2 12.911 25.2 15C25.2 17.9809 22.7809 20.4 19.7999 20.4C18.1042 20.4 16.5904 19.6173 15.6002 18.3936V24.6C15.6002 27.5809 13.1811 30 10.2001 30C7.21909 30 4.8 27.5809 4.8 24.6C4.8 22.511 5.98799 20.6979 7.72482 19.7999C5.98799 18.902 4.8 17.0889 4.8 15C4.8 12.911 5.98798 11.0979 7.72479 10.2C5.98798 9.30201 4.8 7.48903 4.8 5.40004C4.8 2.41906 7.21909 0 10.2001 0ZM6 5.40004C6 3.08181 7.88182 1.2 10.2001 1.2H14.3999V9.59993H10.2001L10.1871 9.59994C7.87476 9.59291 6 7.7139 6 5.40004ZM14.4002 14.9428C14.4 14.9619 14.3999 14.9809 14.3999 15C14.3999 15.019 14.4 15.0381 14.4002 15.0571V19.1999H10.2001C7.88182 19.2 6 17.3182 6 15C6 12.686 7.87484 10.8069 10.1872 10.7999L10.2001 10.8H14.3999L14.4002 14.9428ZM15.6002 15.0503V14.9497C15.6271 12.6603 17.4891 10.8092 19.7827 10.8H19.7999C19.8042 10.8 19.8085 10.8 19.8128 10.7999C22.1252 10.8069 24 12.686 24 15C24 17.3182 22.1182 19.2 19.7999 19.2C17.4985 19.2 15.6271 17.3454 15.6002 15.0503ZM16.4066 10.8C16.1103 11.0397 15.8399 11.3101 15.6002 11.6063V10.8H16.4066ZM19.8129 9.59994C19.8086 9.59993 19.8043 9.59993 19.7999 9.59993C19.7934 9.59993 19.7868 9.59994 19.7802 9.59996H15.6002V1.2H19.7999C22.1182 1.2 24 3.08181 24 5.40004C24 7.7139 22.1252 9.59291 19.8129 9.59994ZM10.2001 20.3999C7.88182 20.3999 6 22.2817 6 24.6C6 26.9182 7.88182 28.8 10.2001 28.8C12.5183 28.8 14.4002 26.9182 14.4002 24.6V20.3999H10.2001Z" fill="#333333"/>
</svg>
