<svg width="63" height="63" viewBox="0 0 63 63" fill="none" xmlns="http://www.w3.org/2000/svg">
<g clip-path="url(#clip0_15_305)">
<path fill-rule="evenodd" clip-rule="evenodd" d="M31.0699 1.29443C23.6941 1.29826 16.5602 3.91061 10.9438 8.66435C5.32737 13.4181 1.59466 20.0033 0.413101 27.2423C-0.768456 34.4814 0.678178 41.9024 4.49436 48.1782C8.31054 54.4541 14.2474 59.1757 21.2434 61.4986C22.7868 61.7851 23.3682 60.8285 23.3682 60.0151C23.3682 59.2018 23.3373 56.8435 23.327 54.2653C14.6838 56.1325 12.8574 50.618 12.8574 50.618C11.4478 47.0371 9.41045 46.0959 9.41045 46.0959C6.59112 44.1827 9.6214 44.2185 9.6214 44.2185C12.7443 44.4385 14.3854 47.4054 14.3854 47.4054C17.1533 52.127 21.6549 50.7612 23.4247 49.9632C23.7026 47.963 24.5103 46.6023 25.4003 45.8299C18.4961 45.0523 11.242 42.4025 11.242 30.5653C11.1992 27.4953 12.3449 24.5265 14.442 22.2731C14.1231 21.4955 13.0581 18.3546 14.7456 14.0883C14.7456 14.0883 17.354 13.2596 23.291 17.2548C28.3834 15.8701 33.7563 15.8701 38.8487 17.2548C44.7806 13.2596 47.3838 14.0883 47.3838 14.0883C49.0765 18.3444 48.0115 21.4853 47.6926 22.2731C49.7963 24.5269 50.9444 27.5009 50.8977 30.5755C50.8977 42.4383 43.6282 45.0523 36.7136 45.8145C37.8249 46.7762 38.8179 48.6536 38.8179 51.5388C38.8179 55.6721 38.7818 58.9971 38.7818 60.0151C38.7818 60.8387 39.3426 61.8004 40.9169 61.4986C47.9137 59.1754 53.8511 54.453 57.6673 48.1761C61.4834 41.8991 62.9293 34.4771 61.7463 27.2373C60.5634 19.9976 56.8289 13.4123 51.2106 8.65939C45.5923 3.90646 38.4568 1.29583 31.0801 1.29443H31.0699Z" fill="#333333"/>
<path d="M11.766 45.6509C11.6991 45.8044 11.4522 45.8504 11.2515 45.743C11.0509 45.6355 10.9017 45.436 10.9737 45.2775C11.0457 45.1189 11.2876 45.078 11.4882 45.1854C11.6888 45.2928 11.8432 45.4974 11.766 45.6509Z" fill="#333333"/>
<path d="M13.0265 47.0472C12.9199 47.1006 12.798 47.1155 12.6817 47.0894C12.5653 47.0632 12.4617 46.9977 12.3885 46.904C12.1879 46.6891 12.1467 46.3924 12.3011 46.2594C12.4554 46.1264 12.7332 46.1878 12.9339 46.4027C13.1345 46.6175 13.1808 46.9142 13.0265 47.0472Z" fill="#333333"/>
<path d="M14.251 48.8227C14.0606 48.9557 13.7365 48.8227 13.5564 48.5567C13.5066 48.509 13.467 48.4518 13.44 48.3885C13.4129 48.3252 13.399 48.2572 13.399 48.1884C13.399 48.1196 13.4129 48.0516 13.44 47.9883C13.467 47.925 13.5066 47.8678 13.5564 47.8201C13.7468 47.6922 14.0709 47.8201 14.251 48.081C14.4311 48.3419 14.4362 48.6897 14.251 48.8227Z" fill="#333333"/>
<path d="M15.9127 50.5412C15.7429 50.7304 15.3983 50.6793 15.1153 50.4235C14.8323 50.1677 14.7654 49.8199 14.9352 49.6357C15.105 49.4516 15.4497 49.5027 15.7429 49.7534C16.0362 50.004 16.0928 50.357 15.9127 50.5412Z" fill="#333333"/>
<path d="M18.2432 51.5438C18.166 51.7842 17.8162 51.8917 17.4664 51.7894C17.1165 51.687 16.885 51.4006 16.9519 51.155C17.0188 50.9095 17.3738 50.7969 17.7287 50.9095C18.0837 51.022 18.3101 51.2932 18.2432 51.5438Z" fill="#333333"/>
<path d="M20.7848 51.7178C20.7848 51.9685 20.4967 52.1833 20.1263 52.1885C19.7559 52.1936 19.4523 51.989 19.4523 51.7383C19.4523 51.4876 19.7404 51.2728 20.1108 51.2677C20.4813 51.2626 20.7848 51.4621 20.7848 51.7178Z" fill="#333333"/>
<path d="M23.1514 51.3239C23.1977 51.5745 22.9405 51.8354 22.57 51.8968C22.1996 51.9582 21.8755 51.8098 21.8292 51.5643C21.7829 51.3187 22.0504 51.0527 22.4105 50.9862C22.7707 50.9197 23.1051 51.0732 23.1514 51.3239Z" fill="#333333"/>
</g>
<defs>
<clipPath id="clip0_15_305">
<rect width="62.1383" height="62.1383" fill="white"/>
</clipPath>
</defs>
</svg>
