<svg width="63" height="63" viewBox="0 0 63 63" fill="none" xmlns="http://www.w3.org/2000/svg">
<g clip-path="url(#clip0_15_306)">
<path d="M31.8032 5.59487C40.1045 5.59487 41.0875 5.63128 44.3522 5.77692C47.3863 5.91042 49.0247 6.42015 50.117 6.84492C51.5612 7.4032 52.6049 8.08283 53.6851 9.16297C54.7773 10.2552 55.4448 11.2868 56.0031 12.7311C56.4279 13.8233 56.9376 15.4739 57.0711 18.4959C57.2168 21.7727 57.2532 22.7557 57.2532 31.0449C57.2532 39.3462 57.2168 40.3292 57.0711 43.5939C56.9376 46.628 56.4279 48.2664 56.0031 49.3587C55.4448 50.8029 54.7652 51.8466 53.6851 52.9268C52.5928 54.0191 51.5612 54.6866 50.117 55.2448C49.0247 55.6696 47.3741 56.1793 44.3522 56.3128C41.0754 56.4585 40.0923 56.4949 31.8032 56.4949C23.5019 56.4949 22.5188 56.4585 19.2541 56.3128C16.22 56.1793 14.5816 55.6696 13.4894 55.2448C12.0451 54.6866 11.0014 54.0069 9.92125 52.9268C8.82898 51.8345 8.16148 50.8029 7.6032 49.3587C7.17843 48.2664 6.6687 46.6159 6.5352 43.5939C6.38957 40.3171 6.35316 39.334 6.35316 31.0449C6.35316 22.7436 6.38957 21.7605 6.5352 18.4959C6.6687 15.4618 7.17843 13.8233 7.6032 12.7311C8.16148 11.2868 8.84111 10.2431 9.92125 9.16297C11.0135 8.0707 12.0451 7.4032 13.4894 6.84492C14.5816 6.42015 16.2322 5.91042 19.2541 5.77692C22.5188 5.63128 23.5019 5.59487 31.8032 5.59487ZM31.8032 0C23.3684 0 22.3125 0.0364092 18.9993 0.182046C15.6982 0.327682 13.4287 0.861683 11.4626 1.62628C9.41153 2.42728 7.67602 3.48314 5.95266 5.21865C4.21715 6.94201 3.16129 8.67752 2.36028 10.7164C1.59569 12.6947 1.06169 14.952 0.916055 18.2531C0.770418 21.5785 0.734009 22.6344 0.734009 31.0691C0.734009 39.5039 0.770418 40.5598 0.916055 43.873C1.06169 47.1741 1.59569 49.4436 2.36028 51.4097C3.16129 53.4608 4.21715 55.1963 5.95266 56.9197C7.67602 58.643 9.41153 59.711 11.4504 60.4999C13.4287 61.2645 15.686 61.7985 18.9871 61.9441C22.3004 62.0898 23.3562 62.1262 31.791 62.1262C40.2258 62.1262 41.2817 62.0898 44.5949 61.9441C47.896 61.7985 50.1655 61.2645 52.1316 60.4999C54.1705 59.711 55.906 58.643 57.6294 56.9197C59.3528 55.1963 60.4208 53.4608 61.2096 51.4219C61.9742 49.4436 62.5082 47.1863 62.6539 43.8852C62.7995 40.5719 62.8359 39.5161 62.8359 31.0813C62.8359 22.6465 62.7995 21.5906 62.6539 18.2774C62.5082 14.9763 61.9742 12.7068 61.2096 10.7407C60.445 8.67752 59.3892 6.94201 57.6537 5.21865C55.9303 3.49528 54.1948 2.42728 52.1559 1.63841C50.1777 0.87382 47.9203 0.339819 44.6192 0.194182C41.2938 0.0364092 40.2379 0 31.8032 0Z" fill="#333333"/>
<path d="M31.8032 15.1099C22.9921 15.1099 15.8438 22.2582 15.8438 31.0692C15.8438 39.8802 22.9921 47.0286 31.8032 47.0286C40.6142 47.0286 47.7625 39.8802 47.7625 31.0692C47.7625 22.2582 40.6142 15.1099 31.8032 15.1099ZM31.8032 41.4215C26.0869 41.4215 21.4508 36.7854 21.4508 31.0692C21.4508 25.353 26.0869 20.7169 31.8032 20.7169C37.5194 20.7169 42.1555 25.353 42.1555 31.0692C42.1555 36.7854 37.5194 41.4215 31.8032 41.4215Z" fill="#333333"/>
<path d="M52.1195 14.4788C52.1195 16.542 50.4446 18.2047 48.3936 18.2047C46.3304 18.2047 44.6677 16.5299 44.6677 14.4788C44.6677 12.4156 46.3425 10.7529 48.3936 10.7529C50.4446 10.7529 52.1195 12.4278 52.1195 14.4788Z" fill="#333333"/>
</g>
<defs>
<clipPath id="clip0_15_306">
<rect width="62.1383" height="62.1383" fill="white" transform="translate(0.734009)"/>
</clipPath>
</defs>
</svg>
