<svg width="66" height="66" viewBox="0 0 66 66" fill="none" xmlns="http://www.w3.org/2000/svg">
<path d="M8.25 57.75V8.25H57.75V57.75H8.25Z" fill="#FFD600"/>
<path d="M40.6148 45.3021C41.5663 46.8476 42.6003 48.3285 44.7906 48.3285C46.6304 48.3285 47.5956 47.4141 47.5956 46.1491C47.5956 44.6352 46.5974 44.0976 44.5734 43.2162L43.4638 42.7432C40.2614 41.3847 38.1315 39.6825 38.1315 36.0869C38.1315 32.7731 40.6684 30.2514 44.6325 30.2514C47.4554 30.2514 49.4835 31.229 50.9465 33.7892L47.4898 35.9989C46.7294 34.6404 45.9071 34.1055 44.6325 34.1055C43.3318 34.1055 42.5081 34.9264 42.5081 35.9989C42.5081 37.3244 43.3331 37.8606 45.2375 38.6815L46.3471 39.1545C50.1215 40.7619 52.25 42.4036 52.25 46.0941C52.25 50.0706 49.1095 52.25 44.8938 52.25C40.7701 52.25 38.4285 50.1806 37.125 47.619L40.6148 45.3021ZM24.684 45.4149C25.3798 46.6606 26.4371 47.619 27.9579 47.619C29.4126 47.619 30.25 47.0442 30.25 44.8099V30.25H34.8329V45.5139C34.8329 50.1435 32.1475 52.25 28.226 52.25C24.6826 52.25 22.1251 49.8492 21.0829 47.619L24.684 45.4149Z" fill="#000001"/>
</svg>
