<svg width="46" height="43" viewBox="0 0 46 43" fill="none" xmlns="http://www.w3.org/2000/svg">
<path fill-rule="evenodd" clip-rule="evenodd" d="M22.9836 0C10.2605 0 0 8.3011 0 18.3787C0 24.9201 4.26838 30.6479 10.6709 33.9185L8.50393 42.1036C8.46307 42.2263 8.45678 42.3579 8.48578 42.484C8.51477 42.6101 8.5779 42.7255 8.66809 42.8174C8.79961 42.9347 8.96883 42.9996 9.14418 43C9.28958 42.9882 9.42752 42.9301 9.53818 42.834L18.863 36.4754C20.2394 36.6675 21.6269 36.7672 23.0164 36.7741C35.7231 36.7741 46 28.473 46 18.3787C46 8.2845 35.6902 0 22.9836 0ZM8.04322 15.4733H5.53144C5.22012 15.4824 4.91265 15.4018 4.64493 15.2408C4.52607 15.1655 4.42388 15.0661 4.34478 14.949C4.26568 14.8318 4.21137 14.6994 4.18526 14.5601C4.17729 14.4717 4.17729 14.3829 4.18526 14.2946C4.17746 14.1292 4.2092 13.9643 4.27778 13.814C4.34637 13.6638 4.44979 13.5325 4.57926 13.4312C4.86547 13.2216 5.21092 13.1109 5.56427 13.1157H13.1324C13.4462 13.1045 13.7558 13.1915 14.019 13.3647C14.1406 13.4367 14.245 13.5352 14.3244 13.6529C14.4039 13.7706 14.4566 13.9047 14.4786 14.0455C14.4866 14.1283 14.4866 14.2118 14.4786 14.2946C14.4864 14.4623 14.4547 14.6294 14.3862 14.7824C14.3177 14.9353 14.2144 15.0696 14.0846 15.1743C13.8054 15.3837 13.4633 15.4893 13.116 15.4733H10.6863V24.2061C10.6962 24.3922 10.6677 24.5782 10.6027 24.7525C10.5377 24.9269 10.4376 25.0857 10.3087 25.2189C10.1852 25.3462 10.0366 25.4459 9.87262 25.5117C9.70863 25.5775 9.53283 25.6077 9.35656 25.6007C9.04825 25.6096 8.74647 25.5099 8.50289 25.3186C8.27099 25.1316 8.11361 24.8662 8.05964 24.5713C8.04342 24.4501 8.04342 24.3273 8.05964 24.2061L8.04322 15.4733ZM15.6797 13.0991C15.4454 13.2534 15.2758 13.49 15.2036 13.7632L11.7232 23.3096C11.7047 23.3609 11.6824 23.4136 11.6598 23.4668C11.602 23.6029 11.5426 23.7429 11.5426 23.8742C11.5144 24.039 11.5144 24.2074 11.5426 24.3722C11.5339 24.466 11.5339 24.5606 11.5426 24.6545C11.5907 24.9298 11.7367 25.1776 11.953 25.3516C12.1751 25.5203 12.447 25.6081 12.7246 25.6007C12.9809 25.6333 13.2404 25.575 13.459 25.4357C13.6775 25.2965 13.8415 25.0849 13.9231 24.8371L14.6126 22.795H18.9302L19.6197 24.8371C19.7033 25.0801 19.8653 25.2877 20.0798 25.4262C20.2942 25.5648 20.5485 25.6262 20.8017 25.6007C20.9664 25.6047 21.1301 25.5744 21.2826 25.5115C21.4351 25.4487 21.5732 25.3547 21.6882 25.2355C21.8069 25.1269 21.9007 24.9933 21.9631 24.8442C22.0255 24.695 22.055 24.534 22.0494 24.3722C22.055 24.2671 22.055 24.1619 22.0494 24.0568C21.9924 23.8039 21.9211 23.5543 21.836 23.3096L18.5526 13.9292C18.4741 13.5968 18.2749 13.3064 17.9944 13.1157C17.7298 12.9636 17.4286 12.8888 17.1243 12.8999H16.5005C16.2138 12.8869 15.9293 12.956 15.6797 13.0991ZM15.2857 20.9189L16.8453 15.9382L18.3884 20.9189H15.2857ZM22.4254 14.2948C22.4087 13.9222 22.5385 13.5581 22.7865 13.282C22.9126 13.1534 23.064 13.0529 23.2308 12.9872C23.3976 12.9214 23.5763 12.8916 23.7551 12.9C24.0627 12.8964 24.3628 12.9957 24.6088 13.1823C24.8368 13.3771 24.9883 13.648 25.0356 13.946C25.0518 14.0616 25.0518 14.1791 25.0356 14.2948V23.0276H29.5503C29.8632 23.0235 30.1708 23.1097 30.4368 23.2765C30.5563 23.351 30.659 23.4503 30.7382 23.5675C30.8174 23.6848 30.8713 23.8176 30.8965 23.9573V24.2063C30.9043 24.3717 30.8725 24.5364 30.8039 24.6867C30.7353 24.8369 30.6319 24.9684 30.5025 25.0697C30.2163 25.2793 29.8708 25.3898 29.5175 25.385H23.9685C23.6151 25.408 23.2639 25.315 22.9671 25.1196C22.7017 24.9188 22.5248 24.6207 22.4746 24.2894C22.4626 24.107 22.4626 23.9238 22.4746 23.7414L22.4254 14.2948ZM31.5539 13.2821C31.3118 13.5618 31.1829 13.9233 31.1927 14.2948L31.0942 24.1233C31.078 24.2445 31.078 24.3675 31.0942 24.4887C31.1482 24.7836 31.3055 25.0488 31.5374 25.2358C31.776 25.4247 32.0718 25.5245 32.3747 25.5181C32.556 25.5257 32.7369 25.4958 32.9063 25.4301C33.0757 25.3644 33.23 25.2643 33.3597 25.136C33.6018 24.8564 33.7307 24.4948 33.7209 24.1233V21.3509L35.182 19.8067L38.2355 24.7875C38.362 25.021 38.5422 25.2202 38.7609 25.3685C38.9629 25.4759 39.1895 25.5276 39.4175 25.5181C39.7608 25.523 40.0958 25.4118 40.3697 25.2025C40.5153 25.0773 40.6287 24.9183 40.7002 24.739C40.7717 24.5597 40.7991 24.3655 40.7801 24.1732V24.0903C40.6895 23.8111 40.5566 23.5477 40.3861 23.3098V23.1438L37.1028 17.9971L39.828 14.9754C39.9481 14.8382 40.0527 14.688 40.1399 14.5273C40.2254 14.3755 40.2706 14.2039 40.2712 14.0292C40.2632 13.9908 40.2632 13.9513 40.2712 13.913C40.2778 13.8802 40.2778 13.8462 40.2712 13.8133C40.2478 13.6793 40.198 13.5515 40.1246 13.4374C40.0513 13.3233 39.956 13.2252 39.8444 13.1492C39.6075 12.9854 39.3269 12.8985 39.0399 12.9001C38.8437 12.8962 38.6504 12.9481 38.4818 13.0497C38.3028 13.1939 38.1329 13.349 37.9728 13.5144L33.8194 18.3624V14.2948C33.8275 14.1788 33.8275 14.0621 33.8194 13.9461C33.7663 13.6462 33.6091 13.3754 33.3761 13.1824C33.1074 12.9844 32.7794 12.8862 32.4475 12.9044C32.1155 12.9225 31.7999 13.056 31.5539 13.2821Z" fill="#333333"/>
</svg>
