<svg width="59" height="59" viewBox="0 0 59 59" fill="none" xmlns="http://www.w3.org/2000/svg">
<path fill-rule="evenodd" clip-rule="evenodd" d="M19.0735 9.8335H39.9265C41.9054 9.83347 43.5387 9.83344 44.8691 9.94214C46.2509 10.055 47.5211 10.2973 48.7143 10.9053C50.5645 11.848 52.0688 13.3523 53.0116 15.2026C53.6195 16.3957 53.8618 17.6659 53.9747 19.0478C54.0834 20.3782 54.0834 22.0114 54.0834 23.9902V35.0101C54.0834 36.9889 54.0834 38.6221 53.9747 39.9526C53.8618 41.3344 53.6195 42.6046 53.0116 43.7977C52.0688 45.648 50.5645 47.1523 48.7143 48.0951C47.5211 48.703 46.2509 48.9453 44.8691 49.0582C43.5386 49.1669 41.9054 49.1669 39.9265 49.1668H19.0736C17.0946 49.1669 15.4614 49.1669 14.1309 49.0582C12.7491 48.9453 11.4789 48.703 10.2858 48.0951C8.43552 47.1523 6.93121 45.648 5.98846 43.7977C5.38054 42.6046 5.13823 41.3344 5.02533 39.9526C4.91663 38.6221 4.91666 36.9889 4.91669 35.01V23.9903C4.91666 22.0114 4.91663 20.3782 5.02533 19.0478C5.13823 17.6659 5.38054 16.3957 5.98846 15.2026C6.93121 13.3523 8.43552 11.848 10.2858 10.9053C11.4789 10.2973 12.7491 10.055 14.1309 9.94214C15.4614 9.83344 17.0946 9.83347 19.0735 9.8335ZM14.5313 14.8425C13.4536 14.9305 12.9024 15.0901 12.5179 15.286C11.5928 15.7574 10.8406 16.5096 10.3692 17.4347C10.1733 17.8192 10.0137 18.3704 9.92567 19.4481C9.83527 20.5546 9.83336 21.9861 9.83336 24.0918V34.9085C9.83336 37.0143 9.83527 38.4457 9.92567 39.5522C10.0137 40.63 10.1733 41.1811 10.3692 41.5656C10.8406 42.4907 11.5928 43.2429 12.5179 43.7143C12.9024 43.9102 13.4536 44.0698 14.5313 44.1578C15.6378 44.2483 17.0693 44.2502 19.175 44.2502H39.825C41.9308 44.2502 43.3622 44.2483 44.4687 44.1578C45.5465 44.0698 46.0977 43.9102 46.4821 43.7143C47.4073 43.2429 48.1594 42.4907 48.6308 41.5656C48.8267 41.1811 48.9863 40.63 49.0744 39.5522C49.1648 38.4457 49.1667 37.0143 49.1667 34.9085V24.0918C49.1667 21.9861 49.1648 20.5546 49.0744 19.4481C48.9863 18.3704 48.8267 17.8192 48.6308 17.4347C48.1594 16.5096 47.4073 15.7574 46.4821 15.286C46.0977 15.0901 45.5465 14.9305 44.4687 14.8425C43.3622 14.7521 41.9308 14.7502 39.825 14.7502H19.175C17.0693 14.7502 15.6378 14.7521 14.5313 14.8425Z" fill="#333333"/>
<path fill-rule="evenodd" clip-rule="evenodd" d="M15.1811 20.7344C15.9492 19.6148 17.4794 19.3298 18.599 20.0979L28.1093 26.622C28.9473 27.1969 30.0527 27.1969 30.8906 26.622L40.401 20.0979C41.5206 19.3298 43.0508 19.6148 43.8188 20.7344C44.5869 21.854 44.3019 23.3842 43.1823 24.1523L33.6719 30.6764C31.158 32.4009 27.842 32.4009 25.328 30.6764L15.8177 24.1523C14.6981 23.3842 14.4131 21.854 15.1811 20.7344Z" fill="#333333"/>
</svg>
