<svg width="17" height="18" viewBox="0 0 17 18" fill="none" xmlns="http://www.w3.org/2000/svg">
<path d="M12.8799 1.15708C13.6559 1.15362 14.189 1.15211 14.5951 1.19646C14.7271 1.21088 14.8374 1.22945 14.9311 1.2519L6.74416 9.43883C6.51855 9.66444 6.51855 10.0302 6.74416 10.2558C6.96977 10.4815 7.33556 10.4815 7.56117 10.2558L15.7481 2.06891C15.7705 2.16258 15.7891 2.27289 15.8035 2.40487C15.8479 2.81099 15.8464 3.34414 15.8429 4.1201L15.8344 6.03205C15.833 6.35111 16.0905 6.61091 16.4095 6.61233C16.7286 6.61376 16.9884 6.35626 16.9898 6.03721L16.9985 4.09082C17.0018 3.35773 17.0045 2.75858 16.9521 2.27943C16.8977 1.78119 16.7779 1.34008 16.4841 0.960495C16.4205 0.878327 16.3519 0.800309 16.2787 0.726871C16.2037 0.651563 16.1238 0.581076 16.0395 0.515866C15.6599 0.22211 15.2188 0.102277 14.7206 0.0478663C14.2414 -0.00445822 13.6423 -0.00177427 12.9092 0.00150967L10.9628 0.010194C10.6437 0.0116175 10.3862 0.27142 10.3877 0.590478C10.3891 0.909537 10.6489 1.16703 10.9679 1.16561L12.8799 1.15708Z" fill="#333333"/>
<path d="M9.05776 2.45879C8.59124 2.4532 8.0774 2.4532 7.51276 2.4532H7.47541C6.06075 2.45319 4.95185 2.45318 4.07208 2.5485C3.17429 2.64577 2.44685 2.84783 1.82575 3.29908C1.44974 3.57227 1.11908 3.90294 0.845889 4.27895C0.394635 4.90005 0.192576 5.62749 0.0953058 6.52528C-1.11912e-05 7.40505 -6.18807e-06 8.51395 1.01937e-07 9.9286V9.99831C-6.18807e-06 11.413 -1.11912e-05 12.5219 0.0953058 13.4016C0.192576 14.2994 0.394635 15.0269 0.845889 15.648C1.11907 16.024 1.44974 16.3546 1.82575 16.6278C2.44685 17.0791 3.17429 17.2811 4.07208 17.3784C4.95184 17.4737 6.06072 17.4737 7.47533 17.4737H7.54514C8.95975 17.4737 10.0687 17.4737 10.9484 17.3784C11.8462 17.2811 12.5737 17.0791 13.1948 16.6278C13.5708 16.3546 13.9015 16.024 14.1746 15.648C14.6259 15.0269 14.828 14.2994 14.9252 13.4016C15.0205 12.5219 15.0205 11.413 15.0205 9.99839V9.9608C15.0205 9.39622 15.0205 8.88243 15.0149 8.41597C15.0111 8.09693 14.7494 7.8414 14.4303 7.84522C14.1113 7.84904 13.8558 8.11078 13.8596 8.42982C13.8651 8.88872 13.8651 9.396 13.8651 9.96346C13.8651 11.4205 13.8643 12.4669 13.7765 13.2772C13.6899 14.0767 13.5242 14.5775 13.2399 14.9688C13.038 15.2467 12.7936 15.4912 12.5156 15.6931C12.1243 15.9774 11.6235 16.1431 10.824 16.2297C10.0137 16.3175 8.96731 16.3183 7.51026 16.3183C6.05322 16.3183 5.00684 16.3175 4.19654 16.2297C3.39705 16.1431 2.8962 15.9774 2.50489 15.6931C2.22698 15.4912 1.98257 15.2467 1.78065 14.9688C1.49635 14.5775 1.33063 14.0767 1.24401 13.2772C1.15622 12.4669 1.15543 11.4205 1.15543 9.96346C1.15543 8.50641 1.15622 7.46003 1.24401 6.64973C1.33063 5.85025 1.49635 5.3494 1.78065 4.95809C1.98257 4.68017 2.22697 4.43576 2.50489 4.23384C2.8962 3.94954 3.39705 3.78382 4.19654 3.6972C5.00684 3.60941 6.05322 3.60862 7.51026 3.60862C8.07772 3.60862 8.585 3.60863 9.04391 3.61413C9.36295 3.61795 9.62468 3.36242 9.6285 3.04338C9.63233 2.72434 9.37679 2.46261 9.05776 2.45879Z" fill="#333333"/>
</svg>
