<svg width="1596" height="262" viewBox="0 0 1596 262" fill="none" xmlns="http://www.w3.org/2000/svg">
<path d="M50.054 237.261L49.508 239.172C49.508 239.172 49.235 239.172 48.962 239.718C48.143 241.083 47.051 242.175 47.051 244.086C47.324 250.638 24.392 248.181 19.205 247.362C16.202 246.543 19.205 247.635 13.745 246.27C10.196 245.451 10.742 245.724 10.742 245.451C10.742 244.905 4.736 244.086 4.19 241.629C3.917 241.356 3.917 241.356 3.917 241.083C3.917 239.445 1.46 238.08 1.46 236.715C1.46 236.442 0.914 236.169 0.914 235.896C0.914 235.623 0.641 235.35 0.641 235.077C0.641 234.804 0.641 234.804 0.641 234.531C0.641 233.985 0.368 232.62 0.368 231.528C0.368 231.528 0.0950002 231.528 0.0950002 231.255C0.0950002 230.982 0.368 228.798 0.914 229.071C0.914 229.071 1.733 226.614 1.733 226.341L2.006 226.068C2.006 224.43 3.917 221.427 4.736 220.608C4.736 220.335 5.282 219.516 5.282 219.516C5.282 215.967 10.196 210.78 11.288 208.596C12.38 206.685 14.018 205.047 15.11 203.136C15.383 202.863 15.383 202.59 15.383 202.59C15.656 202.59 17.021 200.679 17.021 200.679C17.021 199.314 19.751 195.492 20.297 194.127C20.297 194.127 23.027 190.305 23.027 188.94C23.027 188.94 23.846 187.302 25.211 185.118C25.484 184.299 26.03 183.48 26.03 183.48C26.03 183.48 26.849 181.842 28.214 179.385C28.76 178.566 29.033 178.293 29.033 178.02C29.033 178.02 33.674 170.376 35.312 167.1C35.312 166.827 35.585 166.281 35.312 165.735C35.039 163.551 34.766 154.542 35.312 152.085C35.585 150.993 35.858 146.352 35.858 146.352C35.858 142.257 39.953 135.432 41.591 134.067C42.683 133.521 44.867 133.794 46.232 132.975C46.232 132.975 46.232 132.975 46.505 132.975C47.597 132.975 49.235 131.61 50.6 131.61C50.873 131.61 51.146 131.61 51.419 131.61C51.692 131.61 56.06 131.61 56.06 130.518C56.06 129.972 57.425 128.334 57.425 128.061C57.425 125.877 61.793 121.236 62.339 119.871C63.431 117.96 65.069 116.049 66.161 114.138C67.253 111.954 68.891 109.77 69.983 107.586C71.621 104.31 74.078 100.488 75.716 97.212C76.808 95.301 76.535 96.12 77.627 93.936C78.719 91.479 80.903 87.384 82.541 84.381C83.087 83.016 84.725 81.651 84.725 80.559C84.725 77.829 86.909 78.102 84.179 76.737C83.906 76.737 83.087 75.645 82.814 75.918C82.541 76.191 80.084 73.734 79.538 72.915C80.084 72.369 78.992 72.369 78.992 71.55C78.992 70.185 71.894 64.725 71.348 63.36C71.075 62.268 70.529 61.176 70.529 59.265C70.529 57.081 71.621 54.624 71.621 52.986C71.621 52.713 71.894 52.44 71.894 52.44C71.894 51.348 72.713 50.802 72.713 49.983C72.713 49.983 72.986 49.437 72.986 49.164L73.532 48.618L73.805 47.526C73.805 46.161 75.989 43.977 76.808 42.885C78.719 39.882 82.541 37.698 85.544 35.514C86.363 34.695 86.909 33.876 87.728 33.876C88.001 33.876 89.912 32.238 89.912 32.238C89.912 32.238 92.096 30.6 92.915 30.6C94.553 30.6 97.283 27.324 98.921 27.051C100.013 27.051 101.651 25.413 102.743 25.413C104.381 25.413 106.565 22.956 108.203 22.683C109.841 22.41 113.936 19.68 115.574 18.861C117.758 18.042 117.212 17.223 118.304 15.585C118.577 15.585 118.577 15.312 118.577 15.312L118.85 14.766C118.85 14.22 120.215 12.855 120.215 12.309C120.215 12.036 121.034 10.671 121.034 10.671C121.034 10.398 122.126 9.03298 122.672 9.03298C122.945 9.03298 124.31 8.48699 124.583 8.48699C130.043 7.66798 135.776 9.85199 139.598 11.763C141.509 12.582 144.239 10.944 146.969 10.944C147.242 10.944 147.788 10.671 148.334 10.671C154.067 10.671 159.8 9.57899 166.079 9.30599C170.174 9.30599 172.631 9.30599 174.815 9.57899C182.732 9.85199 193.379 10.944 199.112 13.674C204.572 16.131 209.213 17.496 214.4 20.499C217.13 22.41 218.495 23.229 221.225 25.413C224.774 28.416 230.78 34.149 232.418 37.971C233.783 40.701 235.421 43.431 236.513 46.434C236.786 47.526 237.059 48.072 237.059 48.345C237.059 51.348 239.243 55.989 240.062 58.719C240.608 61.722 241.7 64.998 242.519 68.001C242.792 70.458 243.884 72.915 244.157 75.372C244.703 80.559 243.884 89.295 242.519 92.025C241.427 95.028 240.335 98.304 239.243 101.034C238.697 103.218 237.332 105.675 236.24 107.859C235.967 107.859 235.967 108.132 235.967 108.132C235.967 110.043 232.964 113.046 232.145 114.411C231.326 116.322 229.961 118.233 228.869 119.871C227.504 121.509 223.409 126.423 222.317 128.607C220.952 131.064 218.768 133.521 216.857 135.432C215.765 136.797 214.127 138.708 212.489 140.073C210.851 141.711 209.759 143.349 207.575 144.441C204.572 146.079 201.569 149.355 198.839 150.993C193.106 155.088 190.103 157.545 183.278 161.367C180.548 163.005 176.999 164.916 176.726 164.916C175.361 164.916 171.266 167.373 170.447 167.919C167.717 169.284 166.079 169.83 164.714 170.376C164.168 170.649 163.895 170.922 163.622 170.922C160.892 170.922 156.797 173.379 154.34 174.198C143.966 177.747 133.865 180.477 124.037 181.842C121.307 182.115 118.85 182.661 114.209 183.207C112.298 183.207 107.384 183.753 103.835 183.753C96.464 184.026 84.725 183.753 76.808 183.48C72.713 183.48 73.532 183.48 71.621 183.48C71.075 184.026 69.983 186.483 69.164 187.029C68.072 187.575 67.526 190.305 66.707 190.851C65.342 191.67 57.152 207.231 56.06 209.142C55.514 209.961 55.241 211.053 55.241 211.053C55.241 211.599 53.876 213.783 53.876 213.783C53.876 214.056 52.784 216.24 52.784 216.24C52.784 217.332 51.146 218.97 51.146 219.789C51.419 221.7 49.508 223.611 49.508 226.341C49.508 230.163 49.508 232.893 49.781 236.988C49.781 236.988 50.054 236.988 50.054 237.261ZM103.835 128.334L103.562 128.88C103.562 130.791 101.378 133.248 100.559 133.794C100.286 134.067 99.74 134.613 99.74 134.886C99.74 135.978 96.737 137.889 96.464 138.981C95.645 140.346 94.28 141.165 93.461 142.53C92.096 144.714 95.645 144.441 98.102 144.987C100.013 145.26 100.013 145.26 103.562 144.987C106.838 144.987 113.39 144.987 115.301 144.168C118.304 142.803 123.491 142.53 125.129 142.257C126.767 141.984 130.316 141.438 131.408 140.619C131.681 140.346 131.954 140.346 132.773 140.073C136.322 139.254 140.963 137.616 144.512 136.251C154.886 132.429 162.257 128.061 170.174 123.147C173.45 120.69 172.904 120.963 174.815 119.598C176.18 118.779 179.456 116.595 180.275 115.23C181.64 113.592 183.551 112.227 185.189 110.862C185.189 110.862 186.281 110.043 186.281 109.77C186.281 109.497 187.919 108.132 188.738 107.586C189.284 106.767 193.379 103.218 193.379 102.399C193.379 102.399 193.652 102.126 194.198 101.58C197.201 98.577 197.201 98.85 199.112 95.301C199.931 93.663 201.296 91.479 202.115 89.568C202.661 87.657 203.48 85.746 203.753 83.562C204.572 80.286 204.845 77.829 204.845 73.188C204.845 69.093 204.299 64.998 202.934 61.722C202.661 61.449 202.661 60.903 202.661 60.903C202.661 60.63 201.296 58.992 201.296 58.173C201.023 56.808 196.655 53.259 195.563 52.44C195.017 51.894 193.379 50.529 192.56 50.529C191.195 50.529 189.557 49.164 187.919 49.164C186.827 49.164 185.462 48.345 184.37 48.345C182.186 48.345 180.275 47.253 178.091 47.253C176.726 47.253 174.542 46.161 173.177 46.161L172.085 45.888C169.901 45.888 165.806 44.796 162.53 45.615C158.981 46.707 153.248 46.707 150.518 48.345C148.607 49.437 147.242 50.256 145.877 52.167C145.331 53.259 143.693 55.443 143.693 55.716C143.693 56.262 142.601 57.354 142.601 57.9C142.601 58.992 140.417 61.995 139.871 61.995C138.779 61.995 135.503 66.09 134.957 66.909C134.957 67.182 133.592 69.366 133.319 69.366C130.043 69.366 123.764 85.2 122.945 86.292L119.669 92.298L118.304 95.301C118.304 96.393 116.393 99.396 116.393 99.396C116.393 99.669 115.574 101.034 115.574 101.307C115.574 101.307 115.301 101.853 115.028 102.399C113.117 106.221 112.844 107.859 111.479 109.224C109.841 110.589 109.022 113.592 107.384 114.957C106.565 115.776 105.2 119.325 105.2 120.69C105.2 122.328 104.381 123.966 104.381 125.604C104.381 126.15 104.108 126.696 104.108 126.969C104.108 127.515 103.835 127.788 103.835 128.334ZM333.347 244.632C333.074 244.632 331.709 245.178 331.709 245.178C329.525 245.178 325.976 247.362 324.611 247.908C322.154 248.454 318.878 250.092 316.148 250.638C313.691 251.184 312.326 251.457 308.777 252.003C306.32 252.276 307.685 252.276 304.682 252.549C295.673 253.368 287.483 252.822 279.839 250.911C277.382 250.365 271.649 248.727 268.919 247.362C268.646 247.362 268.1 247.089 268.1 247.089C267.554 247.089 263.732 244.632 261.548 244.086C259.637 243.54 256.907 241.356 255.269 239.991C253.631 238.899 251.72 238.08 250.082 236.715C248.99 235.896 247.898 234.804 246.533 234.258C246.26 234.258 245.987 233.712 245.714 233.712L245.168 233.166C244.622 233.166 243.53 232.074 243.53 232.074C239.981 232.074 234.521 222.246 233.429 220.608C233.429 220.335 233.156 220.062 233.156 220.062C233.156 218.97 230.972 215.694 230.699 215.148C228.515 210.234 226.604 205.593 224.966 200.133C224.42 197.13 223.601 194.4 223.601 191.943C223.601 190.578 223.055 186.756 222.782 185.391C222.509 183.753 222.782 175.563 222.782 174.471C222.782 169.83 223.874 164.097 224.42 160.548C225.239 155.088 226.604 148.536 227.969 145.533C232.064 136.797 232.61 128.88 236.705 121.782C238.889 117.687 239.708 115.503 241.073 112.5C242.438 109.497 241.892 110.589 244.076 106.221C244.895 104.037 245.441 102.945 245.441 102.945C245.441 102.672 246.26 101.034 246.26 101.034C246.26 98.85 248.99 96.393 249.536 94.482C250.355 91.752 252.539 89.022 253.904 86.838C255.542 84.108 257.18 81.651 259.364 79.467C262.913 75.099 266.462 71.277 269.738 65.817C273.56 59.811 278.201 54.897 282.569 49.71C284.753 46.98 286.664 43.431 288.848 40.974C290.759 38.79 292.397 36.333 294.308 34.422C296.219 32.784 297.311 31.419 299.768 29.781C301.952 28.143 307.685 24.321 310.142 22.956C311.234 22.41 313.145 21.318 313.145 21.318C315.602 21.318 321.062 16.95 322.7 16.95C325.157 16.95 328.16 15.039 330.344 14.22C333.347 13.401 336.623 13.128 339.353 11.763C341.264 11.217 343.994 11.217 346.178 10.398C346.451 10.398 350.819 9.85199 352.457 9.85199C353.276 9.85199 365.015 8.75999 366.653 9.57899C366.926 9.85199 367.745 10.125 368.018 10.125C369.383 10.125 369.929 11.49 371.84 11.49C377.027 12.036 381.668 13.401 385.217 15.039C385.49 15.039 385.763 15.312 385.763 15.312C387.674 15.312 390.95 17.769 392.315 18.588C398.867 22.137 402.962 26.505 408.422 32.238C410.879 34.422 413.609 38.244 415.793 41.52C418.25 45.069 421.526 51.894 423.983 56.808C425.075 59.265 426.986 65.544 427.805 70.458C428.624 74.553 429.716 81.651 429.716 88.203C429.716 94.209 429.17 99.942 428.351 106.221C428.078 106.767 428.078 107.313 428.078 107.586C428.078 107.859 427.805 109.224 427.259 111.681C425.075 123.42 421.799 134.067 417.158 144.987C415.52 149.355 413.882 154.269 411.698 158.364C410.333 161.64 410.06 162.732 408.422 166.008C406.784 169.557 404.327 175.017 403.508 176.928C403.235 177.474 402.962 177.747 402.962 177.747C402.962 179.658 400.232 182.661 399.686 184.299C398.321 187.302 396.41 189.486 394.499 192.762C390.677 199.587 386.036 204.228 381.668 209.688C381.395 209.961 381.122 210.234 381.122 210.234C380.849 210.234 380.303 211.053 380.303 211.053C379.211 211.053 377.027 215.148 375.935 215.148C375.662 215.148 372.932 218.697 372.659 218.697C372.386 218.697 371.294 219.789 371.021 219.789C371.021 219.789 370.748 220.335 370.202 220.608C368.837 221.973 367.199 223.338 367.199 223.611C367.199 223.611 365.561 224.976 365.561 225.249L365.288 225.795L362.285 228.252C361.466 228.252 360.374 229.344 359.828 229.617C358.19 230.436 356.006 233.166 354.368 233.712C352.457 234.258 351.638 235.623 350.273 236.715C350 236.715 348.635 237.807 348.635 238.08C348.635 238.899 345.359 239.445 345.359 240.264C345.359 240.537 343.448 241.356 343.175 241.356C342.083 241.356 339.899 242.994 338.807 242.721C338.534 242.448 337.442 242.994 336.896 242.994L336.077 243.54C335.804 243.54 334.712 244.086 334.712 244.086C334.712 244.086 333.62 244.632 333.347 244.632ZM292.124 215.148C294.035 215.148 312.326 216.786 312.326 214.875C312.326 214.875 312.872 214.875 312.872 214.602L313.964 214.056C314.237 214.056 314.237 214.056 314.237 214.056C314.237 214.056 315.602 212.964 315.875 212.964C315.875 212.964 317.24 212.145 317.513 212.145C317.513 212.145 318.605 211.053 318.878 211.053C321.062 211.053 325.43 206.958 326.522 206.412C328.706 205.047 331.163 203.136 333.347 201.225C336.35 199.041 334.985 199.86 336.623 198.495C337.169 198.222 337.442 197.676 337.442 197.676C337.442 196.038 339.626 195.765 340.718 194.673C341.81 193.581 344.267 191.67 344.267 190.851C344.267 190.578 345.905 188.394 346.178 188.394C346.724 188.394 347.27 187.302 347.816 187.302C351.092 187.302 355.187 181.296 356.552 179.385C359.009 176.109 362.558 170.922 364.469 167.1C365.015 165.462 365.561 163.551 366.38 161.64C366.38 161.367 366.653 160.821 366.653 160.821L368.018 157.818L368.291 156.999C368.291 155.361 371.021 152.358 371.021 150.72C371.021 149.628 372.659 146.898 373.478 145.806C376.754 141.165 379.757 131.61 381.668 126.423C383.033 122.874 384.944 116.868 386.036 112.5C387.128 108.678 388.766 103.491 389.312 99.123C389.858 95.028 390.677 90.114 390.131 84.654C389.858 75.918 387.401 69.093 383.579 63.36C382.487 61.449 381.122 60.084 380.303 59.265C379.211 57.627 377.846 56.808 377.027 55.989C376.481 55.443 375.116 54.351 375.116 54.351L374.297 53.532C371.84 53.532 369.11 53.259 367.745 54.624C366.926 55.443 362.831 56.808 362.831 57.9C362.831 58.446 361.739 58.992 361.739 59.538C361.739 59.811 361.193 60.63 360.92 60.63C360.92 60.903 361.193 60.903 361.193 61.176C360.92 61.449 360.374 61.995 359.828 62.268C359.828 61.995 359.555 61.995 359.282 61.995C358.736 61.995 357.644 63.36 357.098 63.633C356.279 64.179 354.095 66.636 353.549 67.455C351.365 71.55 345.905 72.096 339.899 71.277C338.534 71.277 336.077 70.185 334.985 70.185C334.166 70.185 333.347 69.366 332.528 69.366C332.255 69.366 331.709 69.093 331.709 69.093C331.436 69.093 330.617 68.547 330.617 68.547C328.433 68.547 325.703 66.363 324.065 65.544C322.154 66.909 319.697 68.001 317.786 69.366C313.418 72.642 308.504 76.191 305.228 80.286C303.863 81.924 303.59 81.924 303.044 82.743C302.771 83.016 302.498 83.289 302.498 83.289C299.495 83.289 293.216 95.847 292.124 97.212C291.851 97.212 290.486 99.942 289.667 101.034C289.394 101.034 286.937 105.402 286.118 106.767C285.299 107.586 281.204 115.503 279.566 117.96C278.747 119.325 275.198 126.969 273.833 129.699C271.649 134.34 269.192 140.892 267.554 145.806C266.189 149.082 264.551 152.904 263.459 156.18C262.367 159.456 260.456 164.097 260.729 169.284C260.729 170.376 260.729 171.195 260.729 171.468C260.729 175.29 262.64 178.566 262.64 182.115C262.64 185.391 264.005 189.213 264.005 192.216C264.005 194.673 265.916 197.13 265.916 199.314C265.916 200.133 269.192 203.955 269.738 203.955L270.557 204.501C271.649 204.501 272.195 206.412 273.014 206.412C273.56 206.412 273.833 207.231 274.379 207.231C274.652 207.231 275.744 208.05 275.744 208.05C275.744 208.05 276.017 208.323 276.29 208.323L276.836 208.596C277.109 208.596 277.655 209.142 277.928 209.142C280.112 209.142 284.753 210.78 285.845 212.145C286.118 212.418 286.664 212.964 286.937 212.964L287.21 213.237C287.756 213.237 290.486 216.513 291.578 215.148C291.578 215.148 291.851 215.148 292.124 215.148ZM572.83 208.05C572.83 208.323 573.922 208.869 574.195 208.869C577.744 208.596 565.732 244.086 565.732 244.086C564.64 246.543 563.002 250.365 561.91 250.365C560.818 250.365 557.269 254.733 555.631 253.914C555.358 253.914 553.72 254.187 554.266 253.641C554.266 253.095 553.72 253.368 553.72 253.095V252.822C553.174 252.822 550.171 250.638 550.171 250.092C550.171 249.819 549.898 249.546 549.898 249.273C549.898 249.273 549.352 249 549.352 248.727C549.352 248.727 548.26 247.908 548.26 247.635C548.26 245.724 543.346 242.175 542.527 241.629C540.616 240.81 538.978 240.264 537.067 239.445C536.794 239.445 534.337 237.807 532.972 237.807C532.972 237.807 530.515 236.442 529.696 236.715C528.877 236.715 522.325 232.347 521.779 232.893C520.687 233.439 511.951 226.887 510.859 226.887C510.313 226.887 509.767 226.068 509.494 226.068C509.221 226.068 508.948 225.795 508.948 225.795C508.675 225.795 508.402 225.522 508.129 225.522C507.583 225.522 507.31 224.976 506.764 224.976C506.491 224.976 505.945 224.43 505.672 224.43C504.58 224.43 503.488 222.792 502.396 222.792L501.85 222.519C499.393 222.519 496.117 218.424 494.752 217.332L494.479 217.059L493.933 216.513C493.933 215.694 489.838 212.964 489.838 212.691L488.746 211.599C488.746 211.053 486.562 210.234 486.562 209.688C486.562 208.869 483.832 207.777 483.832 206.958C483.832 206.139 480.556 204.501 480.556 203.682C480.556 202.863 475.915 199.587 475.915 198.768L474.823 197.676C474.004 197.676 472.912 195.492 472.366 195.492C471.274 195.492 468.544 191.943 468.544 191.397C468.544 190.578 467.179 188.94 467.179 187.848C467.179 187.302 466.087 184.572 465.541 184.572C463.903 184.572 461.992 190.305 461.173 190.851C459.808 191.67 451.345 207.504 450.526 209.142C449.98 210.234 449.434 211.326 449.434 211.326L448.069 214.056C448.069 214.329 446.977 216.513 446.977 216.513L446.158 218.424L445.612 220.062C445.612 221.427 444.247 223.611 443.974 224.976C443.155 227.706 444.247 229.071 443.974 231.528C443.428 233.712 444.52 237.534 444.247 238.899C443.974 239.445 443.974 239.718 443.974 239.718H443.428C442.336 239.718 440.971 245.997 440.425 246.816C436.33 250.365 423.772 249.273 416.674 248.454C416.674 248.181 404.662 247.089 404.935 245.997L400.021 244.086C398.929 243.54 397.564 242.448 397.837 241.629C397.837 239.991 394.834 238.08 394.834 236.169C394.834 236.169 394.561 235.896 394.561 235.623C394.561 235.077 394.288 233.166 394.288 232.074C394.015 231.801 394.015 232.074 394.015 231.528C394.015 231.255 394.015 229.344 394.834 229.344C394.834 229.344 395.107 229.071 395.107 228.798C395.107 228.798 395.926 227.16 395.926 226.341C395.926 225.522 397.018 224.703 397.018 223.884C397.018 222.519 398.929 221.154 398.929 219.789L399.475 218.97C399.475 215.421 404.116 211.053 405.208 208.869C406.3 206.958 407.938 205.32 409.03 203.409C409.303 203.136 409.303 202.863 409.576 202.863L410.941 200.679C410.941 200.406 414.217 195.219 414.49 194.127C414.49 194.127 416.947 190.305 416.947 189.213C416.947 189.213 419.677 185.118 419.95 183.48C419.95 183.207 421.042 181.569 422.407 179.112C422.953 178.293 422.953 178.02 422.953 178.02C422.953 177.201 425.956 173.379 425.956 172.56C425.956 171.741 425.41 170.922 424.864 170.103C424.045 168.192 422.953 164.643 423.226 161.913C423.226 158.364 422.68 153.177 422.953 149.628C423.226 148.809 423.772 144.714 423.499 144.441C423.772 143.076 424.864 139.254 425.137 137.616C425.41 137.889 425.41 137.889 425.41 137.616C425.41 135.978 428.413 131.61 430.051 131.61C432.508 131.61 435.238 129.699 437.422 129.699C437.422 129.699 437.695 129.426 437.968 129.426C438.787 129.426 446.158 128.88 446.158 128.88C446.977 128.88 449.98 129.972 450.253 129.972C450.253 126.696 455.713 121.236 456.805 119.325C457.897 117.414 459.535 115.23 460.627 113.319C461.719 111.135 463.357 108.951 464.449 106.767C466.36 103.491 468.544 99.669 470.182 96.393C471.274 94.209 471.001 95.301 472.093 93.117C473.185 91.206 478.918 81.105 478.645 80.559C478.099 79.467 473.731 77.01 472.912 77.556C472.366 77.01 469.909 74.553 469.909 74.28L470.182 74.007C468.271 70.731 464.449 68.547 462.538 65.544C462.265 65.271 461.719 64.725 461.719 64.452C461.719 63.633 460.9 62.268 460.9 60.63C460.9 58.173 461.992 55.989 461.992 54.078C461.992 54.078 462.265 53.805 462.265 53.532L462.538 52.713L462.811 52.167C462.811 51.894 463.084 51.348 463.084 51.348C463.084 51.075 463.357 50.529 463.357 50.529C463.357 48.072 466.906 44.25 467.998 42.885C468.817 42.066 470.728 40.155 471.001 40.155C472.639 40.155 476.734 35.787 477.826 34.968C478.099 34.968 478.099 34.695 478.099 34.695C478.918 34.695 480.283 33.33 480.283 33.33C480.556 33.33 481.648 32.511 483.013 31.692C483.286 31.692 483.286 31.419 483.286 31.419C484.105 31.419 486.289 29.781 487.108 29.508C487.108 29.508 488.746 28.143 489.565 28.143C490.384 28.143 492.295 26.232 493.387 26.232C494.752 26.232 496.936 23.502 498.574 23.502C501.031 23.502 506.218 19.68 507.583 19.134C509.221 18.588 510.313 17.223 511.405 17.223C511.678 17.223 512.224 16.404 512.224 16.131L512.497 15.585C512.497 14.766 513.862 13.947 513.862 12.855C513.862 11.763 516.046 10.125 516.046 9.03298C516.046 8.48699 517.138 7.39499 517.684 7.39499C518.776 7.39499 520.141 6.57598 522.052 6.57598C526.42 6.57598 530.242 7.39499 533.245 9.03298C533.518 9.30599 533.518 9.30599 533.518 9.30599C534.883 9.30599 538.159 11.217 538.705 11.49C544.438 10.944 551.536 10.125 557.542 10.125C561.364 9.85199 564.094 10.125 565.732 10.125C580.201 10.125 591.394 13.674 601.222 18.588C605.044 20.772 606.136 21.045 608.866 23.229C613.78 26.778 620.059 32.511 623.608 37.425C625.519 40.428 627.157 44.25 628.249 47.526C628.795 48.345 629.068 49.164 629.068 49.164C629.068 49.437 629.068 49.71 629.068 49.983C629.068 51.075 630.16 52.44 630.16 53.805C630.16 58.173 632.89 63.633 633.709 67.182C634.801 72.642 636.166 76.737 636.166 83.835C635.62 87.93 635.62 90.66 634.255 93.39C633.163 95.847 632.071 99.123 631.252 101.307C630.706 103.218 630.16 102.945 629.614 105.402C629.068 108.132 626.611 111.135 625.246 113.865C624.154 115.776 622.789 118.233 621.151 120.69C619.786 123.147 617.329 126.696 615.145 129.426C613.234 131.883 611.596 134.613 609.685 136.797C607.228 139.254 604.771 141.438 602.587 143.895C599.311 146.898 595.762 148.536 592.213 150.993C588.391 153.177 584.023 156.18 579.928 158.364C574.195 161.367 563.821 165.735 557.815 167.919C554.812 169.284 554.539 169.284 552.901 169.83C552.355 169.83 552.082 170.103 551.809 170.103C549.079 170.103 544.984 172.014 542.254 172.833C531.88 175.836 522.052 177.747 511.951 179.112C511.405 179.385 508.675 179.658 508.675 179.931C508.675 179.931 508.675 180.204 508.948 180.204C508.948 180.204 509.494 180.477 509.767 180.477C510.313 180.477 513.589 181.296 514.954 181.296C516.319 181.296 519.595 187.575 519.595 187.848C519.595 188.94 522.871 189.759 524.236 189.759C526.147 189.759 526.966 190.578 528.604 190.578C529.423 190.578 531.334 193.035 532.153 193.035C532.699 193.035 533.245 193.854 533.791 193.854L534.61 194.127C535.429 194.127 540.889 197.676 540.889 197.949C540.889 198.768 546.622 201.225 550.171 202.59C550.717 202.863 551.263 203.136 551.263 203.136C553.72 203.136 556.723 205.593 558.634 205.593C560.545 205.593 561.91 206.412 564.64 206.412C567.37 206.412 568.462 206.412 570.919 206.412V206.139C571.465 206.139 572.011 206.412 572.011 206.958C572.011 206.958 572.557 207.231 572.557 207.504C572.557 207.504 572.83 207.777 572.83 208.05ZM496.663 131.61C496.663 132.429 494.479 133.521 494.479 134.34C494.479 135.705 491.203 137.07 491.203 138.435C490.93 138.981 489.565 140.346 489.019 140.892C489.292 142.257 489.019 141.984 492.022 141.984C495.571 141.711 501.85 141.711 504.034 140.892C507.583 139.527 512.497 139.527 514.135 139.254C515.5 138.981 520.141 138.708 520.96 137.616C521.233 137.616 521.233 137.616 522.598 137.343C528.058 135.978 534.064 134.34 539.524 132.429C544.984 130.518 549.898 128.334 554.539 126.15C559.726 123.966 561.091 122.874 564.913 120.963C567.37 119.598 570.1 117.687 572.011 116.322C573.649 115.23 575.014 113.865 576.379 112.773C577.471 111.954 578.29 111.135 579.382 110.043C579.928 109.77 581.02 108.405 581.02 108.405C581.02 108.405 581.839 107.859 582.658 107.04C585.388 104.037 584.569 104.856 587.026 101.853C588.118 100.488 589.21 97.758 590.575 96.393C591.394 95.301 592.486 92.571 593.305 90.66C593.851 89.022 594.67 87.111 595.216 84.654C595.762 80.559 596.854 74.553 596.035 69.366C595.762 67.182 595.216 64.725 594.397 62.541C594.124 62.268 594.124 61.995 594.124 61.995C594.124 61.722 593.032 59.811 592.759 59.265C592.486 57.354 588.118 54.078 586.753 53.259C586.48 52.986 584.842 51.621 584.023 51.621C583.204 51.621 581.293 50.256 580.474 50.256C580.201 50.256 579.655 49.983 579.382 49.983C577.471 49.983 574.741 48.618 573.376 48.891C570.919 49.437 565.732 47.526 563.821 46.98C563.548 46.98 563.275 46.707 563.275 46.707C562.183 46.707 560.818 46.161 559.453 46.161C553.447 46.161 549.625 47.526 544.438 48.618C542.8 48.891 542.254 49.437 541.435 50.802C541.162 51.075 541.162 51.075 541.162 51.075C540.616 51.075 538.978 54.351 538.978 54.351C538.978 54.897 537.886 55.989 537.886 56.808C537.886 58.173 535.429 60.903 534.064 61.449C532.153 62.541 529.696 66.363 528.604 68.001V68.274C525.328 68.274 518.776 84.108 517.957 85.2L514.954 91.206C514.681 91.479 513.316 94.209 513.316 94.482C513.316 95.574 511.405 98.577 511.405 98.577C511.405 98.85 510.586 100.215 510.586 100.488C510.586 100.488 510.313 101.034 510.04 101.58C508.129 105.402 507.583 106.494 506.764 107.859C505.672 110.316 504.034 111.954 502.669 114.138C502.396 114.138 502.396 114.138 502.396 114.138C502.396 114.138 501.304 116.322 501.304 116.595C501.304 117.141 500.485 118.233 500.485 118.506C500.485 118.779 500.212 119.871 500.212 119.871C500.212 120.144 499.939 120.963 499.939 121.236C499.939 121.782 499.393 123.966 499.393 125.058C499.393 125.331 499.12 125.877 499.12 126.15C499.12 126.423 498.574 127.515 498.574 127.788L498.301 128.334C498.301 128.607 496.663 131.337 496.663 131.61ZM650.481 249.546C650.481 249 642.837 249 642.837 246.816C642.837 246.27 640.107 244.086 639.015 242.721C638.742 242.721 638.742 242.448 638.742 242.448C638.742 242.448 638.469 242.175 638.469 241.902C638.469 241.083 637.377 239.991 637.377 238.626C637.377 238.626 637.377 238.626 637.104 238.626H636.831V236.169H637.377C637.377 233.712 638.196 232.074 638.196 230.436C638.196 227.979 639.834 225.795 639.834 223.338C639.834 219.243 642.564 215.148 643.656 212.418C643.929 210.78 645.021 209.415 645.567 208.05C645.84 206.958 645.84 206.139 646.932 205.047C646.932 204.774 646.932 204.774 646.932 204.774C646.932 203.682 648.843 199.314 649.116 197.949C649.116 197.949 651.027 193.308 651.027 192.489C651.027 190.851 652.938 187.848 652.938 186.483C652.938 186.21 653.757 184.299 654.576 182.115C654.849 181.842 658.944 170.649 660.855 167.1C661.128 166.827 661.128 166.554 661.128 166.554C661.128 166.554 664.404 160.275 664.95 158.091C665.769 155.361 668.226 151.812 669.591 149.355C669.864 149.082 669.864 148.809 669.864 148.809C669.864 148.536 670.956 146.352 671.229 146.079C671.229 146.079 672.594 144.168 672.594 143.349C672.594 142.803 673.959 140.346 673.959 140.346C673.959 140.346 674.232 139.8 674.232 139.527C674.232 138.708 675.051 138.162 675.051 137.343C675.051 137.07 675.324 136.797 675.324 136.524C675.324 134.886 676.962 134.067 676.962 132.702L677.508 131.337L678.6 128.607C678.6 126.15 681.876 122.601 682.695 120.963C684.879 117.141 684.333 118.506 686.517 114.138C687.882 111.681 688.428 111.135 690.066 107.586C691.704 104.31 693.888 100.215 695.526 96.939C696.618 95.028 696.345 95.847 697.164 93.663C698.256 91.479 699.348 89.568 700.713 86.838C701.259 85.473 701.532 84.108 702.897 82.47L703.989 80.286C703.989 80.013 704.535 78.648 704.535 78.648C704.535 78.102 705.627 76.464 705.627 76.464L705.9 75.645C705.9 69.912 712.998 64.179 714.636 61.176C714.909 60.903 716.274 58.173 716.274 58.173L716.82 57.081C716.82 56.262 717.639 55.989 715.728 56.535C715.182 56.535 714.636 56.535 714.363 56.535C711.36 56.535 707.811 58.446 705.627 58.719C705.081 58.992 703.17 59.538 702.624 59.538C699.348 59.538 696.891 61.449 692.796 60.63C690.339 60.357 687.063 61.449 685.698 61.449C680.784 61.449 674.778 64.725 672.048 66.09C671.502 66.363 670.956 66.636 670.956 66.636C669.045 66.636 667.134 67.728 664.404 67.728C659.217 68.001 654.303 66.909 648.843 67.728C647.205 68.001 644.475 67.728 643.383 68.274C642.564 68.82 638.196 68.274 637.65 68.274C637.65 68.274 637.377 68.001 637.104 68.001C636.558 68.001 634.101 64.452 634.101 63.633C634.101 62.814 633.828 62.541 633.282 60.903C632.19 57.627 631.371 54.078 631.098 50.256C631.098 49.437 630.825 45.888 631.098 45.888C631.371 45.888 631.371 45.888 631.371 45.888C631.371 42.885 631.644 33.876 632.463 31.692C633.282 28.962 635.739 27.051 637.65 25.14H637.923L638.196 24.867C638.469 24.867 638.742 24.594 639.015 24.594C640.653 24.594 642.291 22.137 645.021 23.229C646.659 23.775 650.208 23.775 651.3 24.594C652.938 25.686 656.76 25.14 658.398 25.959C660.855 27.324 663.312 24.594 665.769 25.413C668.226 26.232 670.956 26.778 673.959 26.505C675.597 26.232 678.327 26.505 680.238 26.232C683.514 25.686 687.063 25.413 689.793 24.867C690.612 24.594 691.158 24.594 691.158 24.594C691.431 24.594 696.891 23.229 697.164 23.229C699.621 23.229 702.624 21.864 704.808 21.318C706.992 21.045 710.541 19.407 713.271 19.407C715.182 19.68 720.915 19.68 722.28 18.861C723.099 18.315 725.556 18.042 726.102 17.496C726.102 17.223 726.648 16.95 726.921 16.95C728.013 16.95 730.197 14.766 731.562 14.766C731.562 14.766 731.835 14.493 732.108 14.493C732.927 14.493 737.295 14.22 737.295 13.128C737.295 13.128 738.114 12.036 738.114 11.763C738.114 5.48399 756.951 12.855 757.77 12.855C758.316 12.855 759.681 12.582 760.227 12.582C761.865 12.582 764.322 10.944 766.233 11.49C769.236 12.582 773.877 10.671 776.88 10.671C780.702 10.671 786.435 10.125 790.803 10.398C797.082 10.671 806.364 9.30599 812.097 8.21399C814.281 7.941 813.462 7.941 815.373 7.66798C818.103 7.12199 821.925 6.02999 824.928 5.75699C827.931 5.48399 832.026 4.119 834.756 3.84598C836.667 3.57299 840.489 3.29999 841.854 2.48098C842.4 1.93499 845.403 1.38898 845.403 1.11599V0.842989H847.314V1.38898C847.86 1.38898 848.406 1.93499 848.952 1.93499C851.682 1.93499 853.593 2.20799 854.958 4.39199C855.231 4.66499 855.504 5.75699 855.504 5.75699L855.777 6.02999C858.234 11.49 859.599 21.045 859.872 28.416C859.872 28.689 860.691 36.333 860.145 36.606C860.145 36.879 860.145 37.152 859.872 37.425C859.599 41.247 859.326 43.431 857.688 44.523C856.596 45.069 854.412 48.618 853.32 48.618C853.32 48.618 853.047 49.164 852.774 49.164C852.774 49.164 850.317 49.983 850.317 50.256H848.133C848.133 49.437 835.575 46.707 835.575 46.707H835.302C835.302 46.434 832.572 45.342 832.299 45.342C831.753 45.342 830.934 44.796 830.388 44.796C829.023 44.796 827.931 44.523 826.293 44.523C823.29 45.069 821.925 45.342 819.195 45.888C816.465 46.161 814.827 46.707 811.824 46.98C811.005 47.253 806.091 47.526 805.272 48.072C803.907 48.891 798.174 48.618 794.898 48.891C789.438 49.164 793.26 49.164 787.8 49.164C782.886 49.437 781.794 49.71 776.88 49.983C774.423 49.983 771.693 50.529 769.509 50.529C768.417 50.802 766.506 51.075 766.233 51.075C765.414 51.075 764.322 51.348 764.049 51.894C763.23 52.986 760.773 56.262 760.773 57.627C760.773 58.173 759.681 59.538 759.681 60.084C759.408 60.084 756.678 63.36 755.586 64.179C754.221 64.725 752.856 67.455 752.037 68.82C750.945 70.458 749.034 72.915 747.942 74.553C747.396 75.918 746.577 77.01 745.758 78.102C743.847 81.924 741.117 86.838 738.114 92.844C737.295 94.755 736.749 95.574 735.93 97.485C735.657 98.031 735.384 98.304 735.384 98.577L734.838 99.942C734.838 104.31 728.832 110.589 727.74 113.046C726.375 115.503 725.283 118.506 725.01 122.055C725.01 123.966 724.737 124.239 724.737 125.058C724.737 129.153 720.369 132.975 719.004 135.159C717.912 136.797 716.547 138.162 715.455 139.8C714.09 141.984 712.725 145.533 711.906 147.99C711.633 149.082 711.633 151.266 711.36 152.358C711.087 152.631 710.814 153.45 710.814 153.45C710.814 158.091 706.719 161.64 705.354 164.916C705.354 165.189 704.262 166.827 704.262 166.827C704.262 168.465 702.078 169.83 702.078 171.468C702.078 173.106 698.802 177.747 698.256 179.112C697.71 180.204 696.618 182.115 695.799 183.753C693.888 187.575 688.155 199.86 687.336 204.228C687.063 205.047 685.698 208.596 685.698 208.596L684.879 211.326C684.879 211.599 684.333 213.51 684.333 213.783L683.787 215.694C683.787 217.332 682.149 221.154 683.241 222.792C683.241 222.792 683.514 223.611 683.514 223.884C683.514 224.157 683.787 224.976 684.06 224.976C684.606 224.976 684.879 232.893 685.971 232.893C686.517 232.893 686.244 233.166 686.244 233.985C686.244 234.804 686.517 235.077 685.971 235.077H685.698C685.425 236.715 684.333 238.353 684.879 240.264C686.244 245.997 667.68 248.454 662.493 249C662.22 249 657.306 249.546 657.306 249.546C657.306 249.546 656.76 249.546 654.03 249.546C651.027 249.546 650.481 249.546 650.481 249.546ZM853.883 233.166C853.883 233.712 854.156 236.442 854.702 236.442C854.702 236.442 854.702 238.626 853.883 238.353C853.337 239.991 851.972 241.356 852.245 243.267C852.245 244.359 851.153 245.997 850.334 245.997C848.969 245.997 845.42 247.635 843.509 247.908C842.69 247.908 827.402 248.181 827.402 248.181C822.761 247.908 808.838 246.27 808.838 243.54C808.838 243.267 808.565 243.267 808.565 242.994C808.565 242.721 806.927 239.991 806.654 239.991C806.381 239.991 805.835 239.172 805.835 239.172C805.835 238.899 805.562 238.626 805.562 238.626C805.562 238.353 805.289 238.353 805.289 238.08C805.289 237.807 805.016 237.261 805.016 236.715C805.016 236.715 804.743 236.442 804.743 236.169C804.743 235.896 804.47 233.985 804.197 233.985C803.924 233.985 803.924 231.528 805.016 231.528C805.016 230.709 805.835 229.344 805.835 228.525C805.835 225.522 808.838 222.246 809.384 220.062C809.93 217.878 811.568 215.421 812.387 213.51C813.479 211.326 815.117 208.869 815.936 206.685C816.209 206.412 816.209 206.412 816.209 206.139C816.209 206.139 817.028 204.501 817.301 204.228C819.212 202.044 820.031 197.13 821.123 194.4C822.215 191.397 821.669 192.762 823.034 189.213C824.399 185.664 823.58 187.302 825.218 183.753C826.583 180.477 826.856 178.839 829.859 172.287C829.859 172.014 830.132 171.741 830.132 171.741C830.132 170.922 827.948 168.738 827.675 168.192C825.764 165.462 823.307 160.275 822.215 156.726C822.215 156.726 820.304 151.812 820.577 151.812L817.301 140.346C816.482 135.978 817.574 128.607 820.85 127.242C823.034 126.15 831.77 127.788 833.954 126.15H834.227C834.773 126.15 836.957 123.966 838.322 125.058C838.868 125.331 845.147 125.058 845.147 125.058C845.147 125.331 849.242 124.785 849.788 124.785C851.699 124.785 851.972 120.417 853.064 119.598C853.61 119.325 853.883 117.96 854.429 117.687C856.613 115.23 858.251 110.589 859.889 107.859C861.8 104.31 861.254 105.948 863.711 100.488C864.53 99.123 865.076 97.485 866.441 95.847C868.352 93.663 871.628 86.292 872.174 84.654C872.993 83.562 874.085 82.47 874.085 81.105C874.085 80.286 875.723 77.556 875.723 77.556C875.723 77.283 875.996 76.737 875.996 76.737C875.996 75.645 877.361 74.553 877.361 73.734C877.361 72.642 878.999 69.639 879.545 69.366C879.818 69.093 880.364 68.001 880.364 68.001C880.091 67.455 875.45 69.639 875.177 69.639C874.904 69.639 873.539 70.185 873.539 70.185C873.539 70.731 870.263 71.277 869.99 71.277C869.99 71.277 869.171 70.731 868.625 69.912C866.441 67.182 863.438 59.538 862.073 54.897C862.073 54.897 860.162 50.529 860.981 49.983C861.8 48.891 859.343 41.793 859.07 40.155V35.787C859.07 30.054 859.07 28.689 862.073 25.959C862.892 24.867 863.438 25.14 865.076 25.14C866.168 25.14 875.723 26.778 875.723 25.413C875.723 24.594 878.999 24.321 879.272 24.321C880.091 24.321 880.637 24.867 881.183 24.867C882.275 24.867 883.094 25.14 884.186 25.14C885.824 25.14 896.471 25.686 896.471 24.321C896.471 22.956 897.836 19.68 897.29 18.588C894.833 12.582 910.394 11.217 917.219 12.036C921.587 12.855 924.317 14.22 928.685 15.039C933.599 15.858 935.51 16.677 937.694 18.861C938.24 19.68 939.059 19.953 939.059 19.407L939.605 19.134C939.605 18.861 940.697 18.588 940.697 18.315C940.697 18.315 940.697 18.042 940.97 18.042C941.243 18.042 941.516 17.769 941.789 17.769C942.881 17.769 944.519 16.131 945.611 16.677C948.614 18.315 953.528 14.766 957.35 15.312C958.715 15.585 962.264 14.766 963.083 15.312C964.721 16.131 975.368 14.22 977.552 14.22C978.644 14.22 982.739 13.947 986.288 13.674C986.834 13.674 986.561 13.401 987.107 13.401C989.018 13.401 989.837 12.309 991.202 12.309C992.021 12.309 997.754 10.398 997.754 9.57899V9.30599H998.846V9.85199C999.119 10.125 999.665 10.398 999.938 10.398L1000.48 10.671C1003.76 10.671 1003.76 12.036 1004.85 16.95C1006.22 23.229 1006.76 30.6 1007.04 38.244C1007.31 43.431 1007.86 51.075 1005.94 53.532C1005.67 53.805 1005.13 54.351 1005.13 54.351C1005.13 55.716 1002.67 58.992 1001.3 59.265C1001.03 59.265 1001.3 59.265 1001.03 59.265C1001.03 59.265 1000.76 59.265 1000.76 59.538V59.811H999.392V59.538C999.392 59.265 999.392 59.265 999.119 59.265L997.754 58.992C997.208 58.992 996.662 58.446 996.389 58.446C994.751 58.446 993.386 56.535 992.021 56.535C991.202 56.535 989.564 54.897 988.745 54.897C988.199 54.897 987.38 53.805 986.834 53.805C984.923 53.805 983.831 52.44 981.101 52.986C980.555 52.986 978.371 53.259 978.371 53.259C973.73 53.259 969.635 54.078 964.994 54.624C962.264 54.897 956.531 54.897 954.074 55.989C953.528 55.989 952.709 56.262 952.436 56.262C951.89 56.262 950.798 56.535 950.525 56.535C950.252 56.535 950.252 56.808 949.979 56.808C949.706 56.808 949.706 56.808 949.433 56.808L948.068 57.081L945.884 57.9C945.338 57.9 944.519 58.173 943.973 58.173C943.7 58.173 943.7 58.446 943.427 58.446C943.154 58.446 934.964 59.538 934.691 58.992C934.691 58.992 931.688 58.719 930.869 58.992C929.777 59.538 928.685 62.268 927.866 62.814C925.682 63.906 923.771 68.001 922.679 69.912C921.587 71.823 919.676 74.553 918.857 76.191C917.765 78.102 917.492 78.102 915.854 81.105C913.943 85.2 914.489 83.289 910.94 90.114C910.394 91.752 909.575 93.117 909.575 93.117C909.302 93.39 907.937 96.12 907.937 96.393C907.937 97.212 906.026 100.215 906.026 100.215C906.026 100.488 905.207 101.853 905.207 101.853C905.207 102.126 904.388 103.764 904.388 103.764C904.388 107.313 898.928 113.319 897.563 114.957C897.29 115.23 896.471 117.141 896.471 117.141C896.471 117.96 898.655 116.595 898.655 116.595C899.201 116.595 900.293 115.23 900.839 115.23L901.658 114.957V114.684C902.75 114.684 904.115 113.046 905.48 113.592C907.118 114.138 911.759 112.773 912.851 112.5C916.127 111.135 920.768 111.954 924.863 111.408C927.047 111.408 937.967 110.589 938.786 110.043C939.878 109.224 945.338 108.678 946.43 108.678C948.887 108.678 951.071 106.494 952.982 105.948C953.528 105.948 953.801 105.675 954.347 105.675C954.893 105.675 955.439 104.31 955.985 104.31C956.531 104.31 956.531 104.037 956.531 103.764C957.077 103.764 957.35 103.491 957.896 103.491C957.896 104.037 958.988 104.856 959.807 104.856C966.905 104.856 967.997 125.058 968.816 130.791C969.362 134.613 971 143.895 968.816 147.171C968.543 147.717 967.178 149.628 967.178 150.447C967.178 150.447 966.905 150.72 966.905 150.993V151.266L966.359 151.812C966.359 152.085 965.267 152.904 965.267 152.904C964.994 152.904 964.721 153.177 964.721 153.45V153.723C964.175 153.723 963.629 153.723 963.083 153.723V153.45C963.083 153.177 963.083 153.177 962.81 153.177C961.172 153.177 960.353 152.358 958.988 152.358C958.169 152.358 957.35 151.539 956.804 151.539C956.531 151.539 955.985 151.266 955.985 151.266C955.712 151.266 955.439 151.266 955.439 151.266C955.166 151.266 954.62 150.72 954.62 150.72C954.62 150.72 954.074 150.447 953.801 150.447C953.528 150.447 952.982 150.174 952.709 150.174C952.436 150.174 951.89 149.628 951.89 149.628C950.525 149.628 949.16 148.536 947.795 148.536C946.157 148.536 941.789 148.263 940.424 149.082C939.332 149.628 934.145 149.082 933.599 149.901C933.326 150.447 925.682 150.993 925.409 150.993C923.498 152.631 916.673 151.539 915.035 152.358C914.762 152.631 913.67 152.904 913.397 152.904C913.124 152.904 912.032 153.177 912.032 153.177C911.759 153.177 911.759 153.177 911.486 153.177C910.94 153.177 909.575 153.996 909.302 153.996C909.029 153.996 909.029 153.996 908.756 153.996C908.483 153.996 907.664 154.542 907.391 154.542C906.845 154.542 905.48 155.088 904.934 155.088C904.115 155.088 902.477 155.907 901.385 155.907C901.112 155.907 900.02 155.907 899.747 155.907H898.382C895.652 155.907 879.818 156.453 879.818 157.818C879.818 159.729 876.815 161.913 876.815 164.37L875.996 166.281L875.177 167.919C875.177 169.011 873.812 170.376 873.812 171.468C873.812 174.471 869.717 180.204 868.625 182.115C866.168 187.848 860.981 197.949 858.524 205.32C857.978 207.231 856.067 210.78 856.067 212.691L855.248 214.875C855.248 215.694 854.156 218.424 854.156 218.424C854.156 218.697 853.883 219.789 853.883 220.062C853.883 220.608 852.791 224.157 853.337 224.43C854.156 224.976 853.883 232.074 853.883 233.166ZM1078.26 244.632C1077.99 244.632 1076.63 245.178 1076.63 245.178C1074.44 245.178 1070.89 247.362 1069.53 247.908C1067.07 248.454 1063.79 250.092 1061.06 250.638C1058.61 251.184 1057.24 251.457 1053.69 252.003C1051.24 252.276 1052.6 252.276 1049.6 252.549C1040.59 253.368 1032.4 252.822 1024.76 250.911C1022.3 250.365 1016.57 248.727 1013.84 247.362C1013.56 247.362 1013.02 247.089 1013.02 247.089C1012.47 247.089 1008.65 244.632 1006.46 244.086C1004.55 243.54 1001.82 241.356 1000.19 239.991C998.548 238.899 996.637 238.08 994.999 236.715C993.907 235.896 992.815 234.804 991.45 234.258C991.177 234.258 990.904 233.712 990.631 233.712L990.085 233.166C989.539 233.166 988.447 232.074 988.447 232.074C984.898 232.074 979.438 222.246 978.346 220.608C978.346 220.335 978.073 220.062 978.073 220.062C978.073 218.97 975.889 215.694 975.616 215.148C973.432 210.234 971.521 205.593 969.883 200.133C969.337 197.13 968.518 194.4 968.518 191.943C968.518 190.578 967.972 186.756 967.699 185.391C967.426 183.753 967.699 175.563 967.699 174.471C967.699 169.83 968.791 164.097 969.337 160.548C970.156 155.088 971.521 148.536 972.886 145.533C976.981 136.797 977.527 128.88 981.622 121.782C983.806 117.687 984.625 115.503 985.99 112.5C987.355 109.497 986.809 110.589 988.993 106.221C989.812 104.037 990.358 102.945 990.358 102.945C990.358 102.672 991.177 101.034 991.177 101.034C991.177 98.85 993.907 96.393 994.453 94.482C995.272 91.752 997.456 89.022 998.821 86.838C1000.46 84.108 1002.1 81.651 1004.28 79.467C1007.83 75.099 1011.38 71.277 1014.65 65.817C1018.48 59.811 1023.12 54.897 1027.49 49.71C1029.67 46.98 1031.58 43.431 1033.76 40.974C1035.68 38.79 1037.31 36.333 1039.22 34.422C1041.14 32.784 1042.23 31.419 1044.68 29.781C1046.87 28.143 1052.6 24.321 1055.06 22.956C1056.15 22.41 1058.06 21.318 1058.06 21.318C1060.52 21.318 1065.98 16.95 1067.62 16.95C1070.07 16.95 1073.08 15.039 1075.26 14.22C1078.26 13.401 1081.54 13.128 1084.27 11.763C1086.18 11.217 1088.91 11.217 1091.09 10.398C1091.37 10.398 1095.74 9.85199 1097.37 9.85199C1098.19 9.85199 1109.93 8.75999 1111.57 9.57899C1111.84 9.85199 1112.66 10.125 1112.93 10.125C1114.3 10.125 1114.85 11.49 1116.76 11.49C1121.94 12.036 1126.58 13.401 1130.13 15.039C1130.41 15.039 1130.68 15.312 1130.68 15.312C1132.59 15.312 1135.87 17.769 1137.23 18.588C1143.78 22.137 1147.88 26.505 1153.34 32.238C1155.8 34.422 1158.53 38.244 1160.71 41.52C1163.17 45.069 1166.44 51.894 1168.9 56.808C1169.99 59.265 1171.9 65.544 1172.72 70.458C1173.54 74.553 1174.63 81.651 1174.63 88.203C1174.63 94.209 1174.09 99.942 1173.27 106.221C1172.99 106.767 1172.99 107.313 1172.99 107.586C1172.99 107.859 1172.72 109.224 1172.18 111.681C1169.99 123.42 1166.72 134.067 1162.07 144.987C1160.44 149.355 1158.8 154.269 1156.61 158.364C1155.25 161.64 1154.98 162.732 1153.34 166.008C1151.7 169.557 1149.24 175.017 1148.42 176.928C1148.15 177.474 1147.88 177.747 1147.88 177.747C1147.88 179.658 1145.15 182.661 1144.6 184.299C1143.24 187.302 1141.33 189.486 1139.42 192.762C1135.59 199.587 1130.95 204.228 1126.58 209.688C1126.31 209.961 1126.04 210.234 1126.04 210.234C1125.77 210.234 1125.22 211.053 1125.22 211.053C1124.13 211.053 1121.94 215.148 1120.85 215.148C1120.58 215.148 1117.85 218.697 1117.58 218.697C1117.3 218.697 1116.21 219.789 1115.94 219.789C1115.94 219.789 1115.66 220.335 1115.12 220.608C1113.75 221.973 1112.12 223.338 1112.12 223.611C1112.12 223.611 1110.48 224.976 1110.48 225.249L1110.2 225.795L1107.2 228.252C1106.38 228.252 1105.29 229.344 1104.74 229.617C1103.11 230.436 1100.92 233.166 1099.28 233.712C1097.37 234.258 1096.55 235.623 1095.19 236.715C1094.92 236.715 1093.55 237.807 1093.55 238.08C1093.55 238.899 1090.28 239.445 1090.28 240.264C1090.28 240.537 1088.36 241.356 1088.09 241.356C1087 241.356 1084.82 242.994 1083.72 242.721C1083.45 242.448 1082.36 242.994 1081.81 242.994L1080.99 243.54C1080.72 243.54 1079.63 244.086 1079.63 244.086C1079.63 244.086 1078.54 244.632 1078.26 244.632ZM1037.04 215.148C1038.95 215.148 1057.24 216.786 1057.24 214.875C1057.24 214.875 1057.79 214.875 1057.79 214.602L1058.88 214.056C1059.15 214.056 1059.15 214.056 1059.15 214.056C1059.15 214.056 1060.52 212.964 1060.79 212.964C1060.79 212.964 1062.16 212.145 1062.43 212.145C1062.43 212.145 1063.52 211.053 1063.79 211.053C1065.98 211.053 1070.35 206.958 1071.44 206.412C1073.62 205.047 1076.08 203.136 1078.26 201.225C1081.27 199.041 1079.9 199.86 1081.54 198.495C1082.09 198.222 1082.36 197.676 1082.36 197.676C1082.36 196.038 1084.54 195.765 1085.63 194.673C1086.73 193.581 1089.18 191.67 1089.18 190.851C1089.18 190.578 1090.82 188.394 1091.09 188.394C1091.64 188.394 1092.19 187.302 1092.73 187.302C1096.01 187.302 1100.1 181.296 1101.47 179.385C1103.93 176.109 1107.47 170.922 1109.39 167.1C1109.93 165.462 1110.48 163.551 1111.3 161.64C1111.3 161.367 1111.57 160.821 1111.57 160.821L1112.93 157.818L1113.21 156.999C1113.21 155.361 1115.94 152.358 1115.94 150.72C1115.94 149.628 1117.58 146.898 1118.39 145.806C1121.67 141.165 1124.67 131.61 1126.58 126.423C1127.95 122.874 1129.86 116.868 1130.95 112.5C1132.04 108.678 1133.68 103.491 1134.23 99.123C1134.77 95.028 1135.59 90.114 1135.05 84.654C1134.77 75.918 1132.32 69.093 1128.5 63.36C1127.4 61.449 1126.04 60.084 1125.22 59.265C1124.13 57.627 1122.76 56.808 1121.94 55.989C1121.4 55.443 1120.03 54.351 1120.03 54.351L1119.21 53.532C1116.76 53.532 1114.03 53.259 1112.66 54.624C1111.84 55.443 1107.75 56.808 1107.75 57.9C1107.75 58.446 1106.66 58.992 1106.66 59.538C1106.66 59.811 1106.11 60.63 1105.84 60.63C1105.84 60.903 1106.11 60.903 1106.11 61.176C1105.84 61.449 1105.29 61.995 1104.74 62.268C1104.74 61.995 1104.47 61.995 1104.2 61.995C1103.65 61.995 1102.56 63.36 1102.01 63.633C1101.2 64.179 1099.01 66.636 1098.47 67.455C1096.28 71.55 1090.82 72.096 1084.82 71.277C1083.45 71.277 1080.99 70.185 1079.9 70.185C1079.08 70.185 1078.26 69.366 1077.44 69.366C1077.17 69.366 1076.63 69.093 1076.63 69.093C1076.35 69.093 1075.53 68.547 1075.53 68.547C1073.35 68.547 1070.62 66.363 1068.98 65.544C1067.07 66.909 1064.61 68.001 1062.7 69.366C1058.33 72.642 1053.42 76.191 1050.14 80.286C1048.78 81.924 1048.51 81.924 1047.96 82.743C1047.69 83.016 1047.41 83.289 1047.41 83.289C1044.41 83.289 1038.13 95.847 1037.04 97.212C1036.77 97.212 1035.4 99.942 1034.58 101.034C1034.31 101.034 1031.85 105.402 1031.03 106.767C1030.22 107.586 1026.12 115.503 1024.48 117.96C1023.66 119.325 1020.11 126.969 1018.75 129.699C1016.57 134.34 1014.11 140.892 1012.47 145.806C1011.11 149.082 1009.47 152.904 1008.38 156.18C1007.28 159.456 1005.37 164.097 1005.65 169.284C1005.65 170.376 1005.65 171.195 1005.65 171.468C1005.65 175.29 1007.56 178.566 1007.56 182.115C1007.56 185.391 1008.92 189.213 1008.92 192.216C1008.92 194.673 1010.83 197.13 1010.83 199.314C1010.83 200.133 1014.11 203.955 1014.65 203.955L1015.47 204.501C1016.57 204.501 1017.11 206.412 1017.93 206.412C1018.48 206.412 1018.75 207.231 1019.3 207.231C1019.57 207.231 1020.66 208.05 1020.66 208.05C1020.66 208.05 1020.93 208.323 1021.21 208.323L1021.75 208.596C1022.03 208.596 1022.57 209.142 1022.84 209.142C1025.03 209.142 1029.67 210.78 1030.76 212.145C1031.03 212.418 1031.58 212.964 1031.85 212.964L1032.13 213.237C1032.67 213.237 1035.4 216.513 1036.49 215.148C1036.49 215.148 1036.77 215.148 1037.04 215.148ZM1147.32 258.009C1146.23 258.009 1141.59 259.92 1141.59 260.466C1141.59 260.739 1141.32 260.739 1141.32 260.739C1141.32 260.739 1141.04 260.739 1141.04 261.012C1138.31 261.012 1135.58 261.012 1132.85 261.012C1130.4 258.009 1126.57 251.457 1124.94 247.635C1124.94 247.635 1122.75 243.267 1123.3 242.994C1123.3 242.994 1123.3 242.721 1123.3 242.175C1121.39 234.804 1116.75 227.979 1120.84 220.062C1121.11 219.789 1121.39 219.516 1121.39 219.243C1121.39 216.786 1127.67 216.786 1130.67 216.786C1131.76 216.786 1134.49 215.967 1135.31 216.24C1136.13 216.513 1138.86 214.602 1139.13 214.602C1139.13 214.602 1142.14 211.872 1142.68 211.872C1142.95 211.872 1143.77 211.053 1144.05 210.78C1144.87 209.961 1147.05 207.231 1147.32 207.231C1147.6 207.231 1148.96 205.32 1149.23 205.047C1150.87 203.136 1152.24 199.86 1153.6 197.676C1154.42 196.584 1154.69 195.492 1154.69 195.492C1154.69 195.492 1154.97 195.219 1155.24 194.673C1157.97 189.759 1156.88 191.67 1159.06 187.848C1160.97 184.572 1159.61 186.21 1160.97 184.026C1163.16 179.658 1166.98 172.56 1166.98 172.287C1166.98 171.741 1170.8 165.462 1171.07 164.37C1171.62 162.732 1173.8 159.183 1174.62 157.545C1174.9 156.726 1175.44 155.907 1175.44 155.634L1176.26 153.723C1176.26 152.631 1177.9 151.539 1177.9 150.174C1177.9 150.174 1178.17 149.628 1178.17 149.355L1178.44 148.536C1178.44 147.99 1179.26 147.171 1179.26 146.625C1179.26 146.352 1179.54 145.806 1179.54 145.806C1179.54 144.987 1180.63 143.895 1180.63 143.076C1180.63 142.53 1181.17 141.984 1181.17 141.438C1181.17 140.619 1181.99 139.254 1181.99 139.254C1181.99 138.981 1182.54 138.435 1182.54 138.162C1182.54 137.889 1183.09 136.797 1183.09 136.524C1183.09 134.613 1185.82 131.064 1186.63 129.426C1187.45 127.788 1187.73 127.788 1189.09 125.331C1190.18 123.147 1191.28 121.236 1192.64 119.052C1193.73 116.868 1195.1 114.684 1196.46 111.954C1198.1 108.132 1197.55 110.043 1200.28 104.583C1201.38 102.399 1201.1 103.218 1202.2 101.307C1203.29 99.123 1202.74 99.942 1203.83 97.758C1205.2 95.301 1207.66 90.933 1209.29 87.93C1209.84 86.838 1211.48 85.2 1211.48 84.108C1211.48 83.016 1213.12 80.559 1213.12 80.286C1213.12 80.013 1213.39 79.467 1213.39 79.467C1213.39 77.829 1214.75 77.01 1214.75 76.191C1214.75 75.645 1216.94 71.55 1217.48 71.55C1217.76 71.55 1219.12 69.093 1219.12 68.82C1219.39 68.547 1222.4 65.544 1222.94 64.998C1223.49 64.179 1225.13 60.903 1225.13 60.903C1225.13 60.63 1225.4 60.084 1225.4 60.084C1225.4 57.9 1229.22 54.078 1229.5 52.167C1229.77 51.075 1230.31 49.437 1230.31 48.072C1230.31 47.526 1230.59 46.98 1230.59 46.434C1230.59 46.161 1230.86 45.615 1230.86 45.342C1230.86 45.069 1231.13 44.523 1231.13 44.25C1231.13 42.612 1232.5 41.247 1232.77 40.155C1233.59 37.425 1236.87 33.876 1238.23 31.692C1238.5 31.146 1240.42 29.235 1240.42 28.416C1240.42 27.597 1241.78 26.505 1241.78 25.686C1241.78 25.413 1242.6 24.594 1242.6 24.321C1242.6 24.048 1243.69 22.41 1243.69 22.137L1243.96 21.591C1243.96 21.318 1244.24 21.045 1244.24 20.772C1244.24 20.226 1245.06 19.407 1245.06 18.861C1245.06 18.588 1245.6 18.042 1245.6 18.042C1245.6 17.769 1245.88 17.223 1245.88 17.223C1245.88 16.404 1247.24 15.585 1247.24 14.766C1247.24 8.75999 1266.35 15.312 1267.72 16.131C1267.72 16.131 1272.63 17.769 1272.36 18.861C1272.36 19.68 1276.72 21.864 1278.36 22.683C1281.09 24.321 1283.28 25.959 1284.37 27.324C1284.91 27.87 1286.01 27.87 1286.01 28.962C1286.01 30.054 1287.92 31.692 1287.37 33.057C1287.1 33.876 1286.55 34.422 1286.28 35.514V37.698C1286.28 39.609 1284.91 40.974 1285.46 41.52C1285.73 42.339 1284.64 42.885 1284.64 43.158C1284.64 44.25 1284.37 44.25 1284.37 44.796C1283 46.434 1281.37 47.799 1280 49.437C1279.73 49.71 1279.45 49.983 1279.45 49.983C1278.64 49.983 1276.45 54.078 1275.63 54.078L1275.36 54.624C1275.09 54.624 1274.27 56.535 1273.72 56.535C1273.72 56.535 1273.45 57.081 1272.08 59.265C1272.08 59.538 1271.81 59.811 1271.81 59.811C1271.81 60.084 1270.72 62.268 1270.72 62.268C1270.72 65.817 1264.99 68.547 1263.62 70.731C1263.07 71.277 1261.71 74.007 1261.16 74.007L1260.62 74.553C1257.61 74.553 1251.06 89.841 1250.24 90.933C1250.24 90.933 1247.24 96.666 1247.24 96.939C1246.97 96.939 1245.6 99.669 1245.6 99.669C1245.6 100.215 1243.69 103.491 1243.69 103.764C1243.69 104.037 1242.87 105.402 1242.87 105.675C1242.87 109.224 1236.32 117.141 1234.96 119.052C1234.68 119.325 1233.86 121.236 1233.86 121.236C1233.86 123.42 1232.23 126.696 1232.23 129.426C1232.23 130.518 1231.41 131.61 1231.41 132.702C1231.41 132.975 1230.04 135.432 1230.04 135.705C1230.04 138.162 1225.67 140.892 1224.85 142.53C1224.31 143.622 1223.49 144.441 1222.67 145.533C1222.4 146.352 1220.21 149.082 1220.21 150.447C1220.21 151.812 1218.58 153.996 1218.58 155.634C1218.58 155.907 1218.58 156.726 1218.58 156.999C1218.58 159.729 1216.39 161.367 1216.39 163.824C1216.39 164.097 1216.12 164.37 1216.12 164.643C1216.12 166.281 1213.12 168.738 1213.12 170.922L1212.02 172.833C1212.02 174.471 1209.57 176.655 1209.57 178.293C1209.57 181.023 1204.38 188.121 1203.56 190.032C1202.2 192.489 1201.1 193.581 1200.01 196.038C1199.74 196.038 1196.19 203.409 1196.19 203.409C1197.83 202.863 1199.47 203.955 1200.83 203.955C1202.2 203.955 1203.56 204.501 1204.93 204.501C1207.11 204.501 1210.11 203.955 1211.2 203.136C1211.48 202.863 1212.3 202.317 1212.57 202.317C1212.84 202.317 1213.93 201.498 1214.48 201.498C1214.75 201.498 1215.3 200.952 1215.57 200.952C1216.66 200.952 1217.76 199.86 1218.85 200.406C1222.4 201.771 1228.4 198.768 1232.77 199.041C1240.96 199.314 1249.97 198.495 1258.71 198.222C1260.62 198.222 1259.8 198.222 1262.26 198.222C1265.26 198.222 1269.08 197.949 1270.72 197.13C1272.08 196.311 1278.64 194.673 1278.64 194.127V193.854H1278.91C1279.18 193.854 1279.73 194.127 1280 194.127V194.673C1280.27 194.673 1281.09 194.946 1281.09 194.946C1281.91 194.946 1282.18 195.765 1283.55 195.492C1287.37 194.4 1288.74 218.697 1289.01 225.522C1289.01 230.436 1288.74 232.62 1288.19 235.896C1287.92 237.807 1287.64 238.899 1286.83 239.445C1286.55 239.718 1286.28 240.264 1286.28 240.264C1286.28 241.902 1282.73 244.632 1281.91 244.905C1281.64 244.905 1281.64 244.905 1281.37 244.905C1281.37 244.905 1281.37 244.905 1281.37 245.178C1281.37 245.724 1280.27 245.451 1279.73 245.451V244.905H1279.45C1278.91 244.905 1278.09 244.632 1277.82 244.632C1277.27 244.632 1276.45 244.086 1276.18 244.086C1274.81 244.086 1273.72 242.721 1272.9 242.721C1272.63 242.721 1272.08 242.175 1271.81 242.175C1269.63 242.175 1265.8 238.899 1264.17 238.626C1261.71 238.08 1263.62 238.08 1258.71 238.08C1254.34 238.08 1256.52 238.08 1253.52 238.08C1250.79 238.08 1252.7 238.353 1249.97 238.353C1246.69 238.353 1239.32 239.172 1236.05 239.445C1234.96 239.445 1228.95 239.445 1227.86 240.264C1227.04 240.537 1224.31 240.81 1223.76 240.81C1223.49 240.81 1223.49 241.083 1223.22 241.083C1222.94 241.083 1221.31 241.629 1221.31 241.629C1221.31 241.902 1219.12 241.902 1219.12 242.175C1219.12 242.175 1217.21 242.721 1216.66 242.721C1212.57 242.721 1207.11 243.54 1202.74 243.813C1198.92 243.813 1196.74 244.086 1193.19 244.632C1192.91 244.632 1192.37 244.905 1192.37 244.905C1189.91 244.905 1187.73 245.724 1185.27 245.724C1185.27 245.724 1183.36 245.997 1183.09 245.997C1180.9 245.997 1178.72 247.362 1177.08 247.362C1176.81 247.362 1176.53 247.635 1176.53 247.635C1176.26 247.635 1172.71 248.727 1173.8 249.546C1173.8 249.546 1173.26 250.638 1172.71 251.457C1172.71 251.457 1172.44 251.184 1172.17 251.184C1172.17 251.457 1170.8 252.276 1170.8 252.549C1170.8 252.549 1169.98 253.368 1169.71 253.368C1169.16 254.187 1168.34 256.371 1167.8 256.371C1167.8 256.371 1167.8 256.371 1167.52 256.371C1165.34 258.009 1158.52 256.098 1156.06 255.279C1155.51 255.006 1153.6 255.552 1153.6 256.098C1153.6 256.098 1151.42 256.917 1151.14 256.917C1150.05 256.917 1148.41 258.009 1147.32 258.009ZM1342.22 239.718C1342.49 239.718 1342.76 239.718 1342.76 239.991C1342.76 240.264 1342.49 241.902 1341.94 241.902C1341.67 241.902 1340.85 243.267 1340.85 243.54C1340.85 244.086 1339.49 245.451 1339.49 246.543C1340.03 249.546 1334.3 250.092 1331.02 250.365C1325.02 250.638 1320.38 249.546 1314.92 249.273C1313.28 249.273 1303.45 247.635 1303.72 246.816C1303.72 246.543 1300.17 245.724 1298.26 244.359C1297.17 243.54 1297.44 242.721 1296.35 241.629V241.356C1296.35 239.991 1294.17 239.172 1294.17 237.807C1294.17 236.988 1294.17 237.534 1294.17 233.985C1294.17 230.709 1294.17 230.436 1294.17 230.436C1294.17 230.709 1296.35 225.522 1296.35 225.249C1296.35 224.703 1299.36 220.062 1299.36 220.062L1299.63 219.516C1299.63 217.332 1302.9 214.056 1303.45 212.964C1304 211.872 1305.36 209.415 1306.18 208.596C1306.18 207.231 1308.09 205.32 1308.36 204.228C1309.46 202.044 1310.28 198.768 1311.37 196.038C1311.91 194.673 1312.46 193.581 1312.46 193.581C1312.46 193.308 1312.73 192.216 1313.82 189.486C1314.37 188.394 1314.64 187.848 1314.64 187.575C1314.64 187.575 1316.83 183.207 1316.55 182.115C1316.55 181.842 1316.83 181.569 1317.1 180.477C1317.92 178.566 1320.65 172.833 1321.47 170.376C1322.01 169.284 1322.29 168.465 1322.29 168.465C1322.29 165.462 1328.02 155.634 1329.39 152.904C1329.66 152.085 1330.2 151.266 1330.2 151.266C1330.2 150.993 1331.02 149.355 1331.02 149.082C1331.02 147.99 1332.39 147.171 1332.39 145.533C1332.39 145.26 1332.66 144.714 1332.66 144.714C1332.66 143.895 1333.48 142.803 1333.48 142.803C1333.48 142.53 1333.75 141.984 1333.75 141.984C1333.75 141.711 1334.03 141.165 1334.03 141.165C1334.03 140.346 1335.12 139.254 1335.12 138.435C1335.12 138.435 1335.39 137.889 1335.39 137.616C1335.39 136.797 1336.76 135.705 1336.76 134.613L1337.3 133.521C1337.3 129.972 1342.76 122.874 1343.85 120.69C1344.95 118.506 1346.58 116.595 1347.4 114.684C1348.5 112.5 1350.41 110.043 1351.5 108.132C1353.14 104.583 1355.59 101.034 1357.5 97.485C1358.6 95.574 1358.05 96.393 1359.14 94.482C1361.05 90.933 1362.96 88.203 1364.88 84.927C1365.42 83.835 1366.79 82.197 1366.79 81.105C1366.79 80.286 1367.61 79.74 1368.97 77.283C1368.97 77.01 1368.97 76.737 1368.97 76.737C1368.97 75.645 1371.43 73.188 1371.43 71.823C1371.43 68.274 1377.43 65.271 1378.8 63.087C1379.07 62.541 1381.26 59.265 1381.26 58.446C1381.26 55.989 1385.08 53.532 1385.35 51.075C1385.62 50.802 1385.9 50.256 1385.9 49.983C1385.9 49.437 1386.17 48.072 1386.17 48.072C1386.17 47.799 1386.44 47.253 1386.44 47.253C1386.44 44.25 1387.53 41.793 1388.9 39.609C1389.99 37.698 1392.18 34.695 1393.27 33.057C1393.54 32.511 1394.36 30.873 1395.18 30.054C1397.09 28.962 1397.91 25.686 1399.27 24.048C1399.27 24.048 1400.37 22.41 1400.37 21.864L1400.64 21.318C1400.64 20.772 1401.73 19.407 1401.73 19.407C1401.73 19.134 1402 18.861 1402 18.861C1402 18.588 1404.46 13.947 1405.01 13.947C1405.28 13.947 1405.55 13.401 1405.83 13.401C1413.47 13.401 1419.48 14.493 1424.39 17.223C1425.48 18.042 1424.39 16.95 1427.39 19.134C1429.03 20.226 1429.85 21.864 1433.67 24.048C1435.31 24.867 1436.95 26.232 1437.77 26.778C1438.04 27.051 1438.31 27.324 1438.31 27.324C1439.68 27.324 1441.04 31.419 1441.32 32.238C1441.32 33.603 1442.13 33.33 1442.68 33.603C1443.23 34.422 1441.86 35.241 1442.13 36.879C1443.23 38.517 1441.59 38.244 1441.59 38.79C1441.59 40.701 1440.5 40.974 1440.77 42.066C1440.77 43.158 1439.68 45.342 1439.13 45.342C1437.77 45.342 1434.76 50.529 1433.94 50.529L1432.31 51.894L1431.49 52.986L1429.85 54.351C1429.85 54.624 1428.21 56.535 1428.21 56.535C1427.67 56.535 1425.21 61.176 1425.21 61.995C1425.21 62.541 1422.75 65.817 1422.21 65.817C1421.66 65.817 1420.84 66.909 1420.57 67.182C1419.2 68.001 1416.47 71.277 1415.65 72.642C1414.56 74.553 1412.65 77.283 1411.29 78.648C1409.65 80.013 1408.01 84.381 1406.37 86.019C1406.1 86.292 1404.73 88.749 1404.46 89.022C1402 92.298 1399.82 97.485 1397.91 100.761C1397.09 101.853 1396.82 102.945 1396.27 104.31C1396 104.583 1395.72 105.129 1395.72 105.129C1395.72 110.043 1388.08 114.684 1387.26 118.233C1386.99 119.052 1386.44 120.417 1386.44 121.236C1386.44 121.509 1386.17 122.055 1386.17 122.328C1386.17 123.966 1385.35 125.604 1385.35 127.242C1385.35 127.242 1385.08 128.061 1385.08 128.334C1385.08 128.607 1384.8 129.153 1384.8 129.153C1384.8 129.426 1383.17 131.61 1383.17 131.883C1383.17 132.702 1378.25 138.162 1378.25 138.162C1377.43 139.254 1376.07 140.892 1375.52 141.984C1375.52 142.257 1373.61 145.26 1373.61 145.533C1373.61 146.625 1371.97 149.082 1372.25 149.628C1372.52 150.174 1371.97 151.266 1371.97 151.812C1371.97 152.904 1371.15 153.996 1371.15 154.542C1371.15 158.637 1368.97 160.548 1367.33 163.824C1367.06 164.37 1366.79 164.916 1366.79 164.916C1366.79 166.008 1365.42 167.373 1365.42 168.738L1364.6 170.103C1364.6 170.376 1363.78 172.014 1363.78 172.014C1363.78 175.29 1359.69 180.75 1358.6 183.207C1357.5 185.664 1356.69 187.575 1355.32 189.759C1355.05 190.578 1348.5 206.139 1348.5 206.412C1348.5 208.596 1346.04 211.599 1346.04 213.783C1346.04 215.148 1344.13 218.97 1344.13 220.062C1344.13 223.338 1342.76 224.703 1342.76 228.798C1342.49 234.258 1342.22 232.347 1342.22 236.988C1342.49 238.626 1342.49 238.626 1342.22 239.718ZM1499.18 244.632C1498.91 244.632 1497.55 245.178 1497.55 245.178C1495.36 245.178 1491.81 247.362 1490.45 247.908C1487.99 248.454 1484.72 250.092 1481.99 250.638C1479.53 251.184 1478.16 251.457 1474.61 252.003C1472.16 252.276 1473.52 252.276 1470.52 252.549C1461.51 253.368 1453.32 252.822 1445.68 250.911C1443.22 250.365 1437.49 248.727 1434.76 247.362C1434.48 247.362 1433.94 247.089 1433.94 247.089C1433.39 247.089 1429.57 244.632 1427.39 244.086C1425.47 243.54 1422.74 241.356 1421.11 239.991C1419.47 238.899 1417.56 238.08 1415.92 236.715C1414.83 235.896 1413.74 234.804 1412.37 234.258C1412.1 234.258 1411.82 233.712 1411.55 233.712L1411.01 233.166C1410.46 233.166 1409.37 232.074 1409.37 232.074C1405.82 232.074 1400.36 222.246 1399.27 220.608C1399.27 220.335 1398.99 220.062 1398.99 220.062C1398.99 218.97 1396.81 215.694 1396.54 215.148C1394.35 210.234 1392.44 205.593 1390.8 200.133C1390.26 197.13 1389.44 194.4 1389.44 191.943C1389.44 190.578 1388.89 186.756 1388.62 185.391C1388.35 183.753 1388.62 175.563 1388.62 174.471C1388.62 169.83 1389.71 164.097 1390.26 160.548C1391.08 155.088 1392.44 148.536 1393.81 145.533C1397.9 136.797 1398.45 128.88 1402.54 121.782C1404.73 117.687 1405.55 115.503 1406.91 112.5C1408.28 109.497 1407.73 110.589 1409.91 106.221C1410.73 104.037 1411.28 102.945 1411.28 102.945C1411.28 102.672 1412.1 101.034 1412.1 101.034C1412.1 98.85 1414.83 96.393 1415.37 94.482C1416.19 91.752 1418.38 89.022 1419.74 86.838C1421.38 84.108 1423.02 81.651 1425.2 79.467C1428.75 75.099 1432.3 71.277 1435.58 65.817C1439.4 59.811 1444.04 54.897 1448.41 49.71C1450.59 46.98 1452.5 43.431 1454.69 40.974C1456.6 38.79 1458.23 36.333 1460.15 34.422C1462.06 32.784 1463.15 31.419 1465.61 29.781C1467.79 28.143 1473.52 24.321 1475.98 22.956C1477.07 22.41 1478.98 21.318 1478.98 21.318C1481.44 21.318 1486.9 16.95 1488.54 16.95C1490.99 16.95 1494 15.039 1496.18 14.22C1499.18 13.401 1502.46 13.128 1505.19 11.763C1507.1 11.217 1509.83 11.217 1512.02 10.398C1512.29 10.398 1516.66 9.85199 1518.29 9.85199C1519.11 9.85199 1530.85 8.75999 1532.49 9.57899C1532.76 9.85199 1533.58 10.125 1533.86 10.125C1535.22 10.125 1535.77 11.49 1537.68 11.49C1542.86 12.036 1547.51 13.401 1551.05 15.039C1551.33 15.039 1551.6 15.312 1551.6 15.312C1553.51 15.312 1556.79 17.769 1558.15 18.588C1564.7 22.137 1568.8 26.505 1574.26 32.238C1576.72 34.422 1579.45 38.244 1581.63 41.52C1584.09 45.069 1587.36 51.894 1589.82 56.808C1590.91 59.265 1592.82 65.544 1593.64 70.458C1594.46 74.553 1595.55 81.651 1595.55 88.203C1595.55 94.209 1595.01 99.942 1594.19 106.221C1593.92 106.767 1593.92 107.313 1593.92 107.586C1593.92 107.859 1593.64 109.224 1593.1 111.681C1590.91 123.42 1587.64 134.067 1583 144.987C1581.36 149.355 1579.72 154.269 1577.54 158.364C1576.17 161.64 1575.9 162.732 1574.26 166.008C1572.62 169.557 1570.16 175.017 1569.35 176.928C1569.07 177.474 1568.8 177.747 1568.8 177.747C1568.8 179.658 1566.07 182.661 1565.52 184.299C1564.16 187.302 1562.25 189.486 1560.34 192.762C1556.51 199.587 1551.87 204.228 1547.51 209.688C1547.23 209.961 1546.96 210.234 1546.96 210.234C1546.69 210.234 1546.14 211.053 1546.14 211.053C1545.05 211.053 1542.86 215.148 1541.77 215.148C1541.5 215.148 1538.77 218.697 1538.5 218.697C1538.22 218.697 1537.13 219.789 1536.86 219.789C1536.86 219.789 1536.59 220.335 1536.04 220.608C1534.67 221.973 1533.04 223.338 1533.04 223.611C1533.04 223.611 1531.4 224.976 1531.4 225.249L1531.13 225.795L1528.12 228.252C1527.3 228.252 1526.21 229.344 1525.67 229.617C1524.03 230.436 1521.84 233.166 1520.21 233.712C1518.29 234.258 1517.48 235.623 1516.11 236.715C1515.84 236.715 1514.47 237.807 1514.47 238.08C1514.47 238.899 1511.2 239.445 1511.2 240.264C1511.2 240.537 1509.29 241.356 1509.01 241.356C1507.92 241.356 1505.74 242.994 1504.64 242.721C1504.37 242.448 1503.28 242.994 1502.73 242.994L1501.91 243.54C1501.64 243.54 1500.55 244.086 1500.55 244.086C1500.55 244.086 1499.46 244.632 1499.18 244.632ZM1457.96 215.148C1459.87 215.148 1478.16 216.786 1478.16 214.875C1478.16 214.875 1478.71 214.875 1478.71 214.602L1479.8 214.056C1480.07 214.056 1480.07 214.056 1480.07 214.056C1480.07 214.056 1481.44 212.964 1481.71 212.964C1481.71 212.964 1483.08 212.145 1483.35 212.145C1483.35 212.145 1484.44 211.053 1484.72 211.053C1486.9 211.053 1491.27 206.958 1492.36 206.412C1494.54 205.047 1497 203.136 1499.18 201.225C1502.19 199.041 1500.82 199.86 1502.46 198.495C1503.01 198.222 1503.28 197.676 1503.28 197.676C1503.28 196.038 1505.46 195.765 1506.56 194.673C1507.65 193.581 1510.1 191.67 1510.1 190.851C1510.1 190.578 1511.74 188.394 1512.02 188.394C1512.56 188.394 1513.11 187.302 1513.65 187.302C1516.93 187.302 1521.02 181.296 1522.39 179.385C1524.85 176.109 1528.4 170.922 1530.31 167.1C1530.85 165.462 1531.4 163.551 1532.22 161.64C1532.22 161.367 1532.49 160.821 1532.49 160.821L1533.86 157.818L1534.13 156.999C1534.13 155.361 1536.86 152.358 1536.86 150.72C1536.86 149.628 1538.5 146.898 1539.32 145.806C1542.59 141.165 1545.59 131.61 1547.51 126.423C1548.87 122.874 1550.78 116.868 1551.87 112.5C1552.97 108.678 1554.6 103.491 1555.15 99.123C1555.7 95.028 1556.51 90.114 1555.97 84.654C1555.7 75.918 1553.24 69.093 1549.42 63.36C1548.32 61.449 1546.96 60.084 1546.14 59.265C1545.05 57.627 1543.68 56.808 1542.86 55.989C1542.32 55.443 1540.95 54.351 1540.95 54.351L1540.13 53.532C1537.68 53.532 1534.95 53.259 1533.58 54.624C1532.76 55.443 1528.67 56.808 1528.67 57.9C1528.67 58.446 1527.58 58.992 1527.58 59.538C1527.58 59.811 1527.03 60.63 1526.76 60.63C1526.76 60.903 1527.03 60.903 1527.03 61.176C1526.76 61.449 1526.21 61.995 1525.67 62.268C1525.67 61.995 1525.39 61.995 1525.12 61.995C1524.57 61.995 1523.48 63.36 1522.94 63.633C1522.12 64.179 1519.93 66.636 1519.39 67.455C1517.2 71.55 1511.74 72.096 1505.74 71.277C1504.37 71.277 1501.91 70.185 1500.82 70.185C1500 70.185 1499.18 69.366 1498.37 69.366C1498.09 69.366 1497.55 69.093 1497.55 69.093C1497.27 69.093 1496.45 68.547 1496.45 68.547C1494.27 68.547 1491.54 66.363 1489.9 65.544C1487.99 66.909 1485.53 68.001 1483.62 69.366C1479.26 72.642 1474.34 76.191 1471.07 80.286C1469.7 81.924 1469.43 81.924 1468.88 82.743C1468.61 83.016 1468.34 83.289 1468.34 83.289C1465.33 83.289 1459.05 95.847 1457.96 97.212C1457.69 97.212 1456.32 99.942 1455.5 101.034C1455.23 101.034 1452.77 105.402 1451.96 106.767C1451.14 107.586 1447.04 115.503 1445.4 117.96C1444.58 119.325 1441.04 126.969 1439.67 129.699C1437.49 134.34 1435.03 140.892 1433.39 145.806C1432.03 149.082 1430.39 152.904 1429.3 156.18C1428.2 159.456 1426.29 164.097 1426.57 169.284C1426.57 170.376 1426.57 171.195 1426.57 171.468C1426.57 175.29 1428.48 178.566 1428.48 182.115C1428.48 185.391 1429.84 189.213 1429.84 192.216C1429.84 194.673 1431.75 197.13 1431.75 199.314C1431.75 200.133 1435.03 203.955 1435.58 203.955L1436.39 204.501C1437.49 204.501 1438.03 206.412 1438.85 206.412C1439.4 206.412 1439.67 207.231 1440.22 207.231C1440.49 207.231 1441.58 208.05 1441.58 208.05C1441.58 208.05 1441.85 208.323 1442.13 208.323L1442.67 208.596C1442.95 208.596 1443.49 209.142 1443.77 209.142C1445.95 209.142 1450.59 210.78 1451.68 212.145C1451.96 212.418 1452.5 212.964 1452.77 212.964L1453.05 213.237C1453.59 213.237 1456.32 216.513 1457.42 215.148C1457.42 215.148 1457.69 215.148 1457.96 215.148Z" fill="#333333"/>
</svg>
